<svg width="16" height="16" viewBox="0 0 14 14" fill="none" xmlns="http://www.w3.org/2000/svg">
<circle cx="7" cy="7" r="7" fill="#979797"/>
<path d="M6.604 8.096L6.364 3.44L6.34 2.024H7.66L7.636 3.44L7.396 8.096H6.604ZM7 11.06C6.784 11.06 6.6 10.988 6.448 10.844C6.304 10.7 6.232 10.508 6.232 10.268C6.232 10.028 6.308 9.836 6.46 9.692C6.612 9.54 6.792 9.464 7 9.464C7.208 9.464 7.388 9.54 7.54 9.692C7.692 9.836 7.768 10.028 7.768 10.268C7.768 10.508 7.692 10.7 7.54 10.844C7.388 10.988 7.208 11.06 7 11.06Z" fill="white"/>
</svg>
