<svg width="64" height="64" viewBox="0 0 64 64" fill="none" xmlns="http://www.w3.org/2000/svg">
<rect width="64" height="64" rx="32" fill="#D63771"/>
<path d="M21.7156 34.0577C22.2493 33.5242 23.1156 33.5241 23.6492 34.0577C24.1824 34.5914 24.1816 35.4568 23.6483 35.9904L19.4861 40.1525H30.282C31.0365 40.1526 31.6489 40.7643 31.6492 41.5187C31.6491 42.2733 31.0366 42.8858 30.282 42.8859H19.4871L23.6483 47.048C24.1815 47.5816 24.1825 48.447 23.6492 48.9806C23.3931 49.2368 23.0447 49.3809 22.6824 49.381C22.3201 49.381 21.9719 49.2367 21.7156 48.9806L15.2205 42.4855C14.9645 42.2292 14.8201 41.8809 14.8201 41.5187C14.8202 41.1564 14.9643 40.8081 15.2205 40.5519L21.7156 34.0577Z" fill="white"/>
<path d="M41.0535 14.3542C41.4158 14.3542 41.7641 14.4985 42.0203 14.7546L48.5154 21.2498C48.7715 21.506 48.9158 21.8543 48.9158 22.2166C48.9157 22.5789 48.7716 22.9272 48.5154 23.1833L42.0203 29.6775C41.4866 30.211 40.6204 30.2111 40.0867 29.6775C39.5535 29.1438 39.5543 28.2784 40.0877 27.7449L44.2498 23.5828H33.4539C32.6995 23.5826 32.087 22.971 32.0867 22.2166C32.0868 21.462 32.6993 20.8495 33.4539 20.8494H44.2488L40.0877 16.6882C39.5541 16.1547 39.5534 15.2883 40.0867 14.7546C40.3429 14.4985 40.6913 14.3544 41.0535 14.3542Z" fill="white"/>
<path d="M22.2166 14.8201C22.5789 14.8202 22.9272 14.9643 23.1834 15.2205L29.6776 21.7156C30.2111 22.2493 30.2112 23.1155 29.6776 23.6492C29.1439 24.1824 28.2785 24.1816 27.7449 23.6482L23.5828 19.4861V30.282C23.5827 31.0364 22.971 31.6489 22.2166 31.6492C21.462 31.6491 20.8495 31.0366 20.8494 30.282V19.4871L16.6883 23.6482C16.1547 24.1818 15.2884 24.1825 14.7547 23.6492C14.4985 23.393 14.3544 23.0446 14.3543 22.6824C14.3543 22.3201 14.4986 21.9718 14.7547 21.7156L21.2498 15.2205C21.5061 14.9644 21.8543 14.8201 22.2166 14.8201Z" fill="white"/>
<path d="M41.5195 32.0876C42.2739 32.0879 42.8856 32.6994 42.8857 33.4539V44.2498L47.0478 40.0876C47.5813 39.5543 48.4467 39.5535 48.9804 40.0867C49.2366 40.3428 49.3807 40.6912 49.3808 41.0535C49.3808 41.4158 49.2366 41.764 48.9804 42.0203L42.4863 48.5154C42.2301 48.7716 41.8818 48.9157 41.5195 48.9158C41.1572 48.9158 40.8089 48.7715 40.5527 48.5154L34.0576 42.0203C33.5242 41.4866 33.524 40.6202 34.0576 40.0867C34.5913 39.5533 35.4576 39.5541 35.9911 40.0876L40.1523 44.2488V33.4539C40.1524 32.6993 40.7649 32.0878 41.5195 32.0876Z" fill="white"/>
</svg>
