<svg width="64" height="64" viewBox="0 0 64 64" fill="none" xmlns="http://www.w3.org/2000/svg">
<rect width="64" height="64" rx="32" fill="#757575"/>
<path d="M36.2 20.0001C39.2 17.0001 43.85 16.8501 46.55 19.7001C49.25 22.4001 49.25 27.0501 46.25 30.0501C43.25 33.0501 40.85 25.4001 35.9 30.3501C25.55 40.2501 33.2 23.0001 36.2 20.0001Z" fill="white"/>
<path d="M27.8 44C24.8 47 20.15 47.15 17.45 44.3C14.75 41.6 14.75 36.95 17.75 33.95C20.75 30.95 23.15 38.6 28.1 33.65C38.45 23.75 30.8 41 27.8 44Z" fill="white"/>
<path d="M44 36.2C47 39.2 47.15 43.85 44.3 46.55C41.6 49.25 36.95 49.25 33.95 46.25C30.95 43.25 38.6 40.85 33.65 35.9C23.75 25.55 41 33.2 44 36.2Z" fill="white"/>
<path d="M20 27.8C17 24.8 16.85 20.15 19.7 17.45C22.4 14.75 27.05 14.75 30.05 17.75C33.05 20.75 25.4 23.15 30.35 28.1C40.25 38.45 23 30.8 20 27.8Z" fill="white"/>
</svg>
