<svg width="32" height="30" viewBox="0 0 32 30" fill="none" xmlns="http://www.w3.org/2000/svg">
<path d="M6 29C3.78182 29 2 27.2182 2 25C2 22.7818 3.78182 21 6 21C8.21818 21 10 22.7818 10 25C10 27.2182 8.21818 29 6 29Z" fill="#8C8C8C"/>
<path d="M26 29C23.7818 29 22 27.2182 22 25C22 22.7818 23.7818 21 26 21C28.2182 21 30 22.7818 30 25C30 27.2182 28.2182 29 26 29Z" fill="#8C8C8C"/>
<path d="M6 19C3.78182 19 2 17.2182 2 15C2 12.7818 3.78182 11 6 11C8.21818 11 10 12.7818 10 15C10 17.2182 8.21818 19 6 19Z" fill="#8C8C8C"/>
<path d="M26 19C23.7818 19 22 17.2182 22 15C22 12.7818 23.7818 11 26 11C28.2182 11 30 12.7818 30 15C30 17.2182 28.2182 19 26 19Z" fill="#8C8C8C"/>
<path d="M6 9C3.78182 9 2 7.21818 2 5C2 2.78182 3.78182 1 6 1C8.21818 1 10 2.78182 10 5C10 7.21818 8.21818 9 6 9Z" fill="#8C8C8C"/>
<path d="M26 9C23.7818 9 22 7.21818 22 5C22 2.78182 23.7818 1 26 1C28.2182 1 30 2.78182 30 5C30 7.21818 28.2182 9 26 9Z" fill="#8C8C8C"/>
<path d="M16 9C13.7818 9 12 7.21818 12 5C12 2.78182 13.7818 1 16 1C18.2182 1 20 2.78182 20 5C20 7.21818 18.2182 9 16 9Z" fill="#8C8C8C"/>
<path d="M16 19C13.7818 19 12 17.2182 12 15C12 12.7818 13.7818 11 16 11C18.2182 11 20 12.7818 20 15C20 17.2182 18.2182 19 16 19Z" fill="#8C8C8C"/>
<path d="M16 29C13.7818 29 12 27.2182 12 25C12 22.7818 13.7818 21 16 21C18.2182 21 20 22.7818 20 25C20 27.2182 18.2182 29 16 29Z" fill="#8C8C8C"/>
</svg>
