<svg width="64" height="64" viewBox="0 0 64 64" fill="none" xmlns="http://www.w3.org/2000/svg">
<path d="M32 0C49.6731 0 64 14.3269 64 32C64 49.6731 49.6731 64 32 64C14.3269 64 0 49.6731 0 32C0 14.3269 14.3269 0 32 0ZM31.2002 16C31.2002 16 20.0001 32.3198 20 37.9199C20 43.5199 24.9602 48 31.2002 48C37.4401 47.9999 42.4004 43.5199 42.4004 37.9199C42.4003 32.3275 31.2307 16.0445 31.2002 16Z" fill="#008738"/>
<path d="M20 37.92C20 43.52 24.96 48 31.2 48C37.44 48 42.4 43.52 42.4 37.92C42.4 32.32 31.2 16 31.2 16C31.2 16 20 32.32 20 37.92Z" fill="white"/>
</svg>
