<svg width="64" height="64" viewBox="0 0 64 64" fill="none" xmlns="http://www.w3.org/2000/svg">
<rect width="64" height="64" rx="32" fill="#0872ED"/>
<path fill-rule="evenodd" clip-rule="evenodd" d="M37.6582 35.1905L31.9833 38.4404L26.3084 35.1905V28.8022L31.9833 25.5524L37.6582 28.8022V35.1905ZM47.9591 34.32L43.2611 35.6176C42.9142 35.7125 42.6475 35.9351 42.438 36.2034L40.9162 35.2969C40.9113 35.2936 40.9048 35.2953 40.8998 35.292V28.5551L42.3546 27.6911C42.5657 28.0102 42.87 28.2671 43.2611 28.3751L47.9591 29.6727C48.0998 29.712 48.2406 29.7316 48.3797 29.7316C49.0948 29.7316 49.7509 29.2374 49.944 28.4913C50.1764 27.5994 49.6642 26.6831 48.7986 26.4442L45.8269 25.6243L47.874 24.4053C48.6513 23.9438 48.9164 22.9211 48.468 22.1225C48.0197 21.324 47.028 21.0474 46.254 21.5105L44.3117 22.6658L45.0628 19.7776C45.2951 18.8858 44.7829 17.9694 43.9173 17.7305C43.0533 17.49 42.1631 18.0218 41.9308 18.912L40.6724 23.7556C40.5791 24.1123 40.6315 24.4625 40.7542 24.7833L39.2324 25.6882C39.1817 25.7193 39.1506 25.77 39.1048 25.806L33.5166 22.6069C33.5264 22.5316 33.5591 22.4645 33.5591 22.386V20.6007C33.9338 20.5729 34.302 20.4289 34.5884 20.1343L38.028 16.5883C38.6613 15.9354 38.6613 14.8783 38.028 14.2254C37.3948 13.5742 36.3688 13.5742 35.7338 14.2254L33.5591 16.4689V14.0307C33.5591 13.1078 32.8342 12.36 31.9375 12.36C31.0424 12.36 30.3175 13.1078 30.3175 14.0307V16.3396L28.2655 14.2254C27.6322 13.5742 26.6062 13.5742 25.9729 14.2254C25.3397 14.8783 25.3397 15.9354 25.9729 16.5883L29.4109 20.1343C29.6662 20.3962 29.9869 20.5238 30.3175 20.5762V22.386C30.3175 22.4809 30.3551 22.5627 30.3682 22.6527L24.7718 25.8583C24.7457 25.842 24.7326 25.8158 24.7048 25.7994L23.2058 24.906C23.3695 24.5574 23.4333 24.1582 23.3286 23.7556L22.0686 18.912C21.8378 18.0218 20.9493 17.4883 20.0837 17.7305C19.218 17.9694 18.7042 18.8858 18.9366 19.7776L19.7335 22.8409L17.6848 21.6218C16.9058 21.1587 15.9175 21.4336 15.4691 22.2338C15.0224 23.0323 15.2875 24.0551 16.0631 24.5165L18.0038 25.6718L15.2024 26.4442C14.3368 26.6831 13.8246 27.5994 14.0553 28.4913C14.25 29.2374 14.9046 29.7316 15.6213 29.7316C15.7604 29.7316 15.9011 29.712 16.0418 29.6727L20.7398 28.3751C21.0868 28.2802 21.3535 28.0576 21.5629 27.7893L23.0651 28.6827V35.4573L21.6448 36.3016C21.4337 35.9809 21.1293 35.724 20.7398 35.6176L16.0418 34.32C15.1746 34.0762 14.2877 34.6113 14.0553 35.4998C13.8246 36.3916 14.3368 37.308 15.2024 37.5469L18.174 38.3667L16.1253 39.5874C15.3497 40.0489 15.0846 41.07 15.5313 41.8702C15.8324 42.4053 16.3773 42.7063 16.9369 42.7063C17.2118 42.7063 17.4917 42.6343 17.7469 42.4822L19.6877 41.3269L18.9366 44.2151C18.7042 45.1069 19.218 46.0216 20.0837 46.2622C20.2228 46.2998 20.3651 46.3194 20.5042 46.3194C21.2193 46.3194 21.8738 45.8269 22.0686 45.0807L23.3286 40.2371C23.4218 39.8787 23.3678 39.5285 23.2468 39.2094L24.7686 38.3029C24.8144 38.2767 24.8406 38.2293 24.8831 38.1982L30.4811 41.4038C30.4713 41.4725 30.4402 41.5331 30.4402 41.6051V43.392C30.0671 43.4198 29.6973 43.5622 29.4109 43.8583L25.9729 47.4027C25.3397 48.0556 25.3397 49.1143 25.9729 49.7656C26.2888 50.0913 26.7044 50.2565 27.1184 50.2565C27.534 50.2565 27.948 50.0913 28.2655 49.7656L30.4402 47.5238V49.9604C30.4402 50.8849 31.1668 51.6327 32.0618 51.6327C32.9586 51.6327 33.6835 50.8849 33.6835 49.9604V47.6514L35.7338 49.7656C36.0529 50.0913 36.4653 50.2565 36.8809 50.2565C37.2949 50.2565 37.7106 50.0913 38.028 49.7656C38.6613 49.1143 38.6613 48.0556 38.028 47.4027L34.5884 43.8583C34.3348 43.5965 34.0124 43.4689 33.6835 43.4165V41.6051C33.6835 41.5036 33.6442 41.4185 33.6278 41.322L39.216 38.1213C39.2471 38.1425 39.2618 38.1736 39.2946 38.1933L40.7951 39.0851C40.6315 39.4336 40.566 39.8345 40.6724 40.2371L41.9308 45.0807C42.1255 45.8269 42.7817 46.3194 43.4968 46.3194C43.6342 46.3194 43.7766 46.2998 43.9173 46.2622C44.7829 46.0216 45.2951 45.1069 45.0628 44.2151L44.2675 41.1518L46.3146 42.3709C46.5698 42.5214 46.8497 42.5934 47.1246 42.5934C47.6842 42.5934 48.2291 42.2956 48.5318 41.7589C48.9769 40.9587 48.7135 39.9376 47.9362 39.4762L45.9971 38.3209L48.7986 37.5469C49.6642 37.308 50.1764 36.3916 49.944 35.4998C49.7117 34.6113 48.8198 34.0745 47.9591 34.32Z" fill="white"/>
</svg>
