<svg width="32" height="30" viewBox="0 0 32 30" fill="none" xmlns="http://www.w3.org/2000/svg">
<path d="M17.157 9.07799C17.0979 8.27681 16.4292 7.64516 15.6129 7.64516C14.7578 7.64516 14.0645 8.3384 14.0645 9.19355V15.3871L14.0688 15.5027C14.1279 16.3038 14.7966 16.9355 15.6129 16.9355H21.0323L21.1478 16.9312C21.949 16.8721 22.5806 16.2034 22.5806 15.3871L22.5764 15.2715C22.5173 14.4704 21.8485 13.8387 21.0323 13.8387H17.1613V9.19355L17.157 9.07799Z" fill="#8C8C8C"/>
<path fill-rule="evenodd" clip-rule="evenodd" d="M16 3C22.6274 3 28 8.37258 28 15C28 21.6274 22.6274 27 16 27C9.37258 27 4 21.6274 4 15C4 8.37258 9.37258 3 16 3ZM16 6.09677C11.0829 6.09677 7.09677 10.0829 7.09677 15C7.09677 19.9171 11.0829 23.9032 16 23.9032C20.9171 23.9032 24.9032 19.9171 24.9032 15C24.9032 10.0829 20.9171 6.09677 16 6.09677Z" fill="#8C8C8C"/>
</svg>
