<svg width="304" height="240" viewBox="0 0 304 240" fill="none" xmlns="http://www.w3.org/2000/svg">
<g clip-path="url(#clip0_41_608)">
<path d="M0.5 71.38C6.27528 71.1579 12.0045 70.2584 17.57 68.7L34.91 122.07C23.7361 125.416 12.1616 127.24 0.5 127.49V71.38Z" fill="white"/>
<path d="M17.24 69.31L34.24 121.74C23.4356 124.93 12.2615 126.698 1 127V71.86C6.49083 71.6116 11.9373 70.7564 17.24 69.31ZM17.9 68.09C12.0723 69.7625 6.05984 70.7064 0 70.9L0 128C12.0519 127.785 24.0157 125.901 35.55 122.4L17.9 68.09Z" fill="#0872ED"/>
<path d="M23.1801 66.88C28.6032 64.8702 33.7692 62.2251 38.5701 59L71.5701 104.4C61.9966 111.048 51.569 116.373 40.5701 120.23L23.1801 66.88Z" fill="white"/>
<path d="M38.45 59.71L70.85 104.29C61.5626 110.686 51.4766 115.837 40.85 119.61L23.85 67.18C28.9937 65.2375 33.9068 62.7323 38.5 59.71M38.74 58.34C33.7227 61.7457 28.301 64.5136 22.6 66.58L40.2 120.89C51.5944 116.952 62.3848 111.446 72.26 104.53L38.69 58.34H38.74Z" fill="#0872ED"/>
<path d="M59 38.57C62.2182 33.7681 64.8565 28.6022 66.86 23.18L120.23 40.52C116.371 51.518 111.046 61.9454 104.4 71.52L59 38.57Z" fill="white"/>
<path d="M67.18 23.8L119.61 40.8C115.839 51.4276 110.688 61.5139 104.29 70.8L59.71 38.45C62.7322 33.8569 65.2375 28.9437 67.18 23.8ZM66.58 22.55C64.5136 28.251 61.7456 33.6727 58.34 38.69L104.53 72.26C111.445 62.3848 116.952 51.5945 120.89 40.2L66.58 22.55Z" fill="#0872ED"/>
<path d="M43.34 55.56C47.8721 51.9729 51.9728 47.8722 55.56 43.34L100.95 76.34C93.8762 85.6214 85.5927 93.9149 76.32 101L43.34 55.56Z" fill="white"/>
<path d="M55.65 44L100.24 76.4C93.3661 85.339 85.359 93.3461 76.42 100.22L44 55.65C48.2981 52.2048 52.2049 48.2981 55.65 44ZM55.46 42.63C51.732 47.4156 47.4298 51.7246 42.65 55.46L76.21 101.66C85.823 94.387 94.3871 85.823 101.66 76.21L55.46 42.65V42.63Z" fill="#0872ED"/>
<path d="M68.7 17.57C70.2599 12.0048 71.1594 6.27544 71.38 0.5H127.49C127.24 12.1649 125.416 23.7427 122.07 34.92L68.7 17.57Z" fill="white"/>
<path d="M127 1C126.708 12.274 124.947 23.4618 121.76 34.28L69.33 17.28C70.7712 11.9633 71.6196 6.50337 71.86 1H127ZM128 0H70.9C70.7064 6.05984 69.7625 12.0723 68.09 17.9L122.4 35.55C125.901 24.0157 127.785 12.0519 128 0Z" fill="#0872ED"/>
<path d="M68.83 61.54H70.07V64.42H76.55V72.34H70.07V77.25H68.83V72.34H62.36V64.42H68.83V61.54ZM63.6 71.21H68.83V65.54H63.6V71.21ZM75.31 65.54H70.07V71.21H75.31V65.54Z" fill="#0872ED"/>
<path d="M66.3 34C67.95 33.59 68.19 33.54 69.84 33.08C69.46 31.5 69.4 31.26 68.94 29.68L70.4 29.29L71.15 32.74C72.91 32.3 73.27 32.23 75.45 31.79C74.9653 30.8538 74.4069 29.9577 73.78 29.11L75.07 28.53C75.8004 29.4806 76.4273 30.5064 76.94 31.59C77.23 31.59 77.45 31.59 77.62 31.59C80.16 31.59 81.62 32.92 81.62 35.14C81.62 37.36 80 38.93 77.45 38.93C76.1058 38.9184 74.7947 38.5115 73.68 37.76L73.59 36.06C75.36 37.18 76.35 37.57 77.44 37.57C77.7943 37.5992 78.1508 37.5543 78.4867 37.4381C78.8226 37.3219 79.1307 37.1371 79.3913 36.8953C79.6519 36.6536 79.8592 36.3602 80.0002 36.0339C80.1412 35.7076 80.2126 35.3555 80.21 35C80.21 33.62 79.21 32.79 77.45 32.79C76.26 32.79 74.92 33.08 71.45 34.07C72.45 38.94 72.63 40.07 73.12 43.23L71.62 43.53C71.266 40.4659 70.7553 37.4219 70.09 34.41C68.65 34.83 68.38 34.92 66.69 35.49L66.3 34Z" fill="#0872ED"/>
<path d="M81.24 41.76C82.89 41.35 83.13 41.3 84.78 40.84C84.41 39.26 84.34 39.02 83.88 37.44L85.34 37.05L86.09 40.5C87.86 40.06 88.21 39.99 90.39 39.5C89.9129 38.5595 89.3541 37.6627 88.72 36.82L90.02 36.24C90.7431 37.1956 91.3695 38.2206 91.89 39.3C92.17 39.3 92.4 39.3 92.57 39.3C95.1 39.3 96.57 40.63 96.57 42.85C96.57 45.07 95 46.67 92.4 46.67C91.0524 46.6597 89.7377 46.2528 88.62 45.5L88.54 43.8C90.3 44.92 91.29 45.31 92.38 45.31C92.7309 45.3389 93.084 45.2951 93.4172 45.1813C93.7504 45.0676 94.0566 44.8863 94.3165 44.6488C94.5765 44.4114 94.7847 44.1229 94.9281 43.8013C95.0715 43.4798 95.1471 43.1321 95.15 42.78C95.15 41.4 94.15 40.57 92.4 40.57C91.21 40.57 89.86 40.86 86.4 41.85C87.4 46.72 87.57 47.8 88.06 51.01L86.57 51.31C86.2025 48.2452 85.6785 45.2012 85 42.19C83.56 42.61 83.29 42.7 81.61 43.27L81.24 41.76Z" fill="#0872ED"/>
<path d="M98.7501 19.11H106.28V20.3H90.6801V19.11H97.4401V5.10999H98.7501V10.11H105.16V11.3H98.7501V19.11Z" fill="#0872ED"/>
<path d="M102.3 56.83H109.83V58H94.23V56.83H101V42.83H102.31V47.83H108.72V49.02H102.3V56.83Z" fill="#0872ED"/>
<path d="M27.14 71.11C28.79 70.7 29.03 70.65 30.68 70.19C30.3 68.61 30.24 68.37 29.78 66.79L31.24 66.4L32 69.85C33.76 69.41 34.12 69.34 36.3 68.9C35.816 67.9602 35.2575 67.0607 34.63 66.21L35.92 65.63C36.646 66.5836 37.2726 67.6089 37.79 68.69H38.47C41 68.69 42.47 70.01 42.47 72.24C42.47 74.47 40.86 76 38.29 76C36.9463 75.9849 35.6362 75.5783 34.52 74.83L34.43 73.13C36.2 74.25 37.19 74.64 38.28 74.64C38.6309 74.6689 38.984 74.6251 39.3172 74.5113C39.6504 74.3976 39.9566 74.2163 40.2166 73.9789C40.4765 73.7414 40.6847 73.4529 40.8281 73.1313C40.9715 72.8098 41.0471 72.4621 41.05 72.11C41.05 70.73 40.05 69.9 38.29 69.9C37.1 69.9 35.76 70.19 32.29 71.17C33.29 76.05 33.46 77.17 33.96 80.34L32.46 80.64C32.106 77.5726 31.5953 74.5253 30.93 71.51C29.49 71.94 29.21 72.02 27.53 72.6L27.14 71.11Z" fill="#0872ED"/>
<path d="M35.75 86.38C37.4 85.97 37.63 85.92 39.28 85.46C38.91 83.88 38.84 83.64 38.38 82.06L39.84 81.67L40.59 85.12C42.36 84.68 42.72 84.61 44.89 84.12C44.4143 83.1777 43.8589 82.2777 43.23 81.43L44.52 80.85C45.2513 81.832 45.8781 82.8877 46.39 84H47.07C49.6 84 51.07 85.32 51.07 87.55C51.07 89.78 49.46 91.34 46.89 91.34C45.5437 91.3216 44.2313 90.9154 43.11 90.17L43 88.42C44.77 89.54 45.75 89.93 46.84 89.93C47.1912 89.9604 47.5449 89.9177 47.8788 89.8045C48.2127 89.6913 48.5194 89.5101 48.7797 89.2723C49.04 89.0346 49.2482 88.7454 49.3911 88.4232C49.534 88.1009 49.6086 87.7525 49.61 87.4C49.61 86.02 48.61 85.19 46.86 85.19C45.67 85.19 44.33 85.48 40.86 86.46C41.86 91.34 42.03 92.46 42.52 95.62L41.03 95.93C40.6 92.43 40.28 90.54 39.5 86.8C38.05 87.23 37.78 87.31 36.1 87.89L35.75 86.38Z" fill="#0872ED"/>
<path d="M12.7899 96.23C15.1616 97.3108 17.4166 98.631 19.5199 100.17L18.7699 101.31C16.9106 99.8647 14.8986 98.6274 12.7699 97.62V107.42H11.4799V93.78H5.06995V92.54H20.5799V93.78H12.7899V96.23Z" fill="#0872ED"/>
<path d="M51.62 101.93C53.994 103.016 56.2521 104.34 58.36 105.88L57.61 107C55.7542 105.55 53.7416 104.312 51.61 103.31V113.1H50.31V99.49H43.91V98.25H59.41V99.49H51.62V101.93Z" fill="#0872ED"/>
<path d="M83.91 99.56H88.76L89.44 97.66L90.73 97.81L90.08 99.56H97.15V113.11H83.91V99.56ZM85.15 100.7V103.7H95.91V100.7H85.15ZM85.15 104.78V107.84H95.91V104.78H85.15ZM85.15 108.91V112H95.91V108.94L85.15 108.91Z" fill="#0872ED"/>
<path d="M107.64 112.14C104.64 112.6 102.87 112.84 99.7 113.14L99.53 111.93C101.37 111.78 101.66 111.75 103.61 111.54V110.15H100.42V109.08H103.61V108.08H100.23V102.74H103.61V101.74H99.67V100.6H103.61V99.5401C102.594 99.7008 101.568 99.791 100.54 99.8101L100.03 98.8101C102.449 98.7338 104.853 98.3986 107.2 97.8101L107.98 98.6901C106.939 98.9907 105.876 99.208 104.8 99.3401V100.56H108.34V101.7H104.8V102.7H108.17V108.04H104.8V109.04H108V110.11H104.8V111.35C106.04 111.2 106.27 111.16 107.8 110.93L107.64 112.14ZM101.42 104.88H103.61V103.74H101.42V104.88ZM101.42 107.04H103.61V105.9H101.42V107.04ZM104.8 104.88H107V103.74H104.8V104.88ZM104.8 107.04H107V105.9H104.8V107.04ZM108.68 102.79V101.67H110.38V97.8301H111.62V101.67H114.78V105.53C114.7 112.63 114.37 113.53 111.86 113.46H110.75L110.4 112.24H111.64H111.72C112.075 112.27 112.429 112.174 112.72 111.97C113.25 111.46 113.5 109.3 113.5 105.41V102.76H111.6C111.47 108 110.6 111.16 108.49 113.42L107.42 112.67C109.42 110.43 110.18 107.86 110.35 102.76L108.68 102.79Z" fill="#0872ED"/>
<path d="M116.5 142.5H11.5V181.5H116.5V142.5Z" fill="white"/>
<path d="M116 143V181H12V143H116ZM117 142H11V182H117V142Z" fill="#0872ED"/>
<path d="M116.5 191.5H11.5V230.5H116.5V191.5Z" fill="#0872ED"/>
<path d="M116 192V230H12V192H116ZM117 191H11V231H117V191Z" fill="#0872ED"/>
<path d="M45.32 156.17H55.8V157.17C55.1887 159.147 54.2963 161.027 53.15 162.75C54.9955 164.565 56.7382 166.481 58.37 168.49L57.3 169.75C55.7628 167.704 54.0676 165.781 52.23 164C50.1772 166.414 47.5199 168.24 44.53 169.29L43.67 168C46.1309 167.227 48.3695 165.872 50.197 164.052C52.0245 162.231 53.3872 159.998 54.17 157.54H45.32V156.17Z" fill="#0872ED"/>
<path d="M68.08 169.52V160.81C66.0371 161.972 63.8994 162.959 61.69 163.76L60.9 162.43C65.5365 161.143 69.7032 158.546 72.9 154.95L74.11 156.09C72.7227 157.497 71.2022 158.766 69.57 159.88V169.52H68.08Z" fill="#0872ED"/>
<path d="M78.53 167.48C85.59 166.7 89.09 163.96 91.44 157.48L92.8 158.37C90.35 165 86.35 168.05 79 169L78.53 167.48ZM79.77 156.33C81.305 157.302 82.7241 158.446 84 159.74L83 161C81.7809 159.693 80.4114 158.535 78.92 157.55L79.77 156.33Z" fill="#0872ED"/>
<path d="M106.06 156.63L107.36 158.2C106.36 164.93 102.59 168.8 95.94 169.79L95.26 168.43C99.1 167.8 100.97 166.92 102.96 164.79C104.608 162.869 105.652 160.503 105.96 157.99H98.59C97.8376 159.848 96.6952 161.522 95.24 162.9L94.12 162C95.7039 160.513 96.9018 158.663 97.61 156.61L106.06 156.63ZM106.58 153.98C107.316 154.794 107.957 155.69 108.49 156.65L107.67 157.16C107.145 156.188 106.508 155.282 105.77 154.46L106.58 153.98ZM108.91 153.98C109.583 154.75 110.148 155.608 110.59 156.53L109.78 157.02C109.295 156.102 108.726 155.232 108.08 154.42L108.91 153.98Z" fill="#0872ED"/>
<path d="M48.5 204.29H53.34L54.02 202.39L55.32 202.54L54.67 204.29H61.74V217.84H48.5V204.29ZM49.74 205.43V208.43H60.5V205.43H49.74ZM49.74 209.51V212.57H60.5V209.51H49.74ZM49.74 213.64V216.7H60.5V213.64H49.74Z" fill="white"/>
<path d="M72.23 216.87C69.23 217.33 67.45 217.57 64.29 217.87L64.12 216.67C65.96 216.51 66.25 216.48 68.2 216.28V214.88H65V213.81H68.2V212.81H64.82V207.47H68.2V206.52H64.26V205.38H68.2V204.3C67.1835 204.456 66.1581 204.546 65.13 204.57L64.62 203.57C67.037 203.509 69.4406 203.191 71.79 202.62L72.57 203.5C71.5289 203.801 70.4655 204.018 69.39 204.15V205.37H72.93V206.51H69.39V207.46H72.76V212.8H69.39V213.8H72.57V214.87H69.39V216.11C70.63 215.96 70.85 215.93 72.39 215.69L72.23 216.87ZM66 209.61H68.2V208.47H66V209.61ZM66 211.77H68.2V210.63H66V211.77ZM69.38 209.61H71.56V208.47H69.39L69.38 209.61ZM69.38 211.77H71.56V210.63H69.39L69.38 211.77ZM73.26 207.52V206.4H75V202.56H76.24V206.4H79.4V210.26C79.32 217.36 78.99 218.26 76.48 218.2H75.34L75 217H76.25H76.33C76.6847 217.03 77.0386 216.934 77.33 216.73C77.86 216.22 78.11 214.06 78.11 210.16V207.51H76.19C76.06 212.75 75.19 215.91 73.08 218.17L72 217.43C74 215.19 74.75 212.62 74.92 207.52H73.26Z" fill="white"/>
<path d="M39 157.37L37.54 152.74C37.4971 152.6 37.4238 152.47 37.3253 152.361C37.2268 152.253 37.1055 152.167 36.97 152.11C36.8371 152.048 36.6919 152.015 36.545 152.015C36.3981 152.015 36.253 152.048 36.12 152.11L31.58 154.48C31.3518 154.607 31.1822 154.818 31.1075 155.068C31.0329 155.318 31.0591 155.588 31.1806 155.819C31.302 156.05 31.5091 156.225 31.7576 156.305C32.006 156.386 32.2761 156.366 32.51 156.25L34.61 155.15C32.4 160.23 28.88 165.21 20.7 168.67L21.77 166.14C21.8733 165.896 21.8754 165.621 21.7761 165.375C21.6767 165.13 21.4839 164.934 21.24 164.83C20.996 164.727 20.721 164.725 20.4754 164.824C20.2298 164.923 20.0336 165.116 19.93 165.36L17.82 170.3C17.7606 170.43 17.7299 170.572 17.7299 170.715C17.7299 170.858 17.7606 171 17.82 171.13C17.8814 171.258 17.9693 171.371 18.078 171.463C18.1866 171.554 18.3134 171.621 18.45 171.66L23.38 173H23.64C23.7714 173.017 23.9048 173.008 24.0326 172.974C24.1605 172.939 24.2803 172.88 24.3852 172.799C24.4901 172.718 24.5781 172.618 24.6442 172.503C24.7102 172.388 24.753 172.261 24.77 172.13C24.7871 171.999 24.7781 171.865 24.7437 171.737C24.7092 171.61 24.6499 171.49 24.5691 171.385C24.4883 171.28 24.3876 171.192 24.2728 171.126C24.158 171.06 24.0314 171.017 23.9 171L21.67 170.4C30.38 166.67 34.13 161.33 36.49 155.89L37.12 157.89C37.186 158.101 37.3199 158.284 37.5008 158.41C37.6817 158.537 37.8995 158.6 38.12 158.59C38.2195 158.605 38.3206 158.605 38.42 158.59C38.6517 158.496 38.8398 158.319 38.9472 158.093C39.0545 157.867 39.0734 157.609 39 157.37Z" fill="#0872ED"/>
</g>
<g clip-path="url(#clip1_41_608)">
<path d="M176.5 71.38C182.275 71.1579 188.005 70.2584 193.57 68.7L210.91 122.07C199.736 125.416 188.162 127.24 176.5 127.49V71.38Z" fill="white"/>
<path d="M193.24 69.31L210.24 121.74C199.436 124.93 188.261 126.698 177 127V71.86C182.491 71.6116 187.937 70.7564 193.24 69.31ZM193.9 68.09C188.072 69.7625 182.06 70.7064 176 70.9V128C188.052 127.785 200.016 125.901 211.55 122.4L193.9 68.09Z" fill="#0872ED"/>
<path d="M199.18 66.88C204.603 64.8702 209.769 62.2251 214.57 59L247.57 104.4C237.996 111.048 227.569 116.373 216.57 120.23L199.18 66.88Z" fill="#0872ED"/>
<path d="M214.45 59.71L246.85 104.29C237.564 110.688 227.478 115.839 216.85 119.61L199.85 67.18C204.994 65.2375 209.907 62.7323 214.5 59.71M214.74 58.34C209.723 61.7457 204.301 64.5136 198.6 66.58L216.2 120.89C227.595 116.952 238.385 111.446 248.26 104.53L214.69 58.34H214.74Z" fill="#0872ED"/>
<path d="M235 38.57C238.218 33.7681 240.857 28.6022 242.86 23.18L296.23 40.52C292.371 51.518 287.046 61.9454 280.4 71.52L235 38.57Z" fill="white"/>
<path d="M243.18 23.8L295.61 40.8C291.839 51.4276 286.688 61.5139 280.29 70.8L235.71 38.45C238.732 33.8569 241.238 28.9437 243.18 23.8ZM242.58 22.55C240.514 28.251 237.746 33.6727 234.34 38.69L280.53 72.26C287.446 62.3848 292.952 51.5945 296.89 40.2L242.58 22.55Z" fill="#0872ED"/>
<path d="M219.34 55.56C223.872 51.9729 227.973 47.8722 231.56 43.34L276.95 76.34C269.876 85.6214 261.593 93.9149 252.32 101L219.34 55.56Z" fill="white"/>
<path d="M231.65 44L276.24 76.4C269.366 85.339 261.359 93.3461 252.42 100.22L220 55.65C224.298 52.2048 228.205 48.2981 231.65 44ZM231.46 42.63C227.732 47.4156 223.43 51.7246 218.65 55.46L252.21 101.66C261.823 94.387 270.387 85.823 277.66 76.21L231.46 42.65V42.63Z" fill="#0872ED"/>
<path d="M244.7 17.57C246.26 12.0048 247.159 6.27544 247.38 0.5H303.49C303.24 12.1649 301.416 23.7427 298.07 34.92L244.7 17.57Z" fill="white"/>
<path d="M303 1C302.708 12.274 300.947 23.4618 297.76 34.28L245.33 17.28C246.771 11.9633 247.62 6.50337 247.86 1H303ZM304 0H246.9C246.707 6.05984 245.763 12.0723 244.09 17.9L298.4 35.55C301.901 24.0157 303.785 12.0519 304 0Z" fill="#0872ED"/>
<path d="M244.83 61.54H246.07V64.42H252.55V72.34H246.07V77.25H244.83V72.34H238.36V64.42H244.83V61.54ZM239.6 71.21H244.83V65.54H239.6V71.21ZM251.31 65.54H246.07V71.21H251.31V65.54Z" fill="#0872ED"/>
<path d="M242.3 34C243.95 33.59 244.19 33.54 245.84 33.08C245.46 31.5 245.4 31.26 244.94 29.68L246.4 29.29L247.15 32.74C248.91 32.3 249.27 32.23 251.45 31.79C250.965 30.8538 250.407 29.9577 249.78 29.11L251.07 28.53C251.8 29.4806 252.427 30.5064 252.94 31.59C253.23 31.59 253.45 31.59 253.62 31.59C256.16 31.59 257.62 32.92 257.62 35.14C257.62 37.36 256 38.93 253.45 38.93C252.106 38.9184 250.795 38.5115 249.68 37.76L249.59 36.06C251.36 37.18 252.35 37.57 253.44 37.57C253.794 37.5992 254.151 37.5543 254.487 37.4381C254.823 37.3219 255.131 37.1371 255.391 36.8953C255.652 36.6536 255.859 36.3602 256 36.0339C256.141 35.7076 256.213 35.3555 256.21 35C256.21 33.62 255.21 32.79 253.45 32.79C252.26 32.79 250.92 33.08 247.45 34.07C248.45 38.94 248.63 40.07 249.12 43.23L247.62 43.53C247.266 40.4659 246.755 37.4219 246.09 34.41C244.65 34.83 244.38 34.92 242.69 35.49L242.3 34Z" fill="#0872ED"/>
<path d="M257.24 41.76C258.89 41.35 259.13 41.3 260.78 40.84C260.41 39.26 260.34 39.02 259.88 37.44L261.34 37.05L262.09 40.5C263.86 40.06 264.21 39.99 266.39 39.5C265.913 38.5595 265.354 37.6627 264.72 36.82L266.02 36.24C266.743 37.1956 267.369 38.2206 267.89 39.3C268.17 39.3 268.4 39.3 268.57 39.3C271.1 39.3 272.57 40.63 272.57 42.85C272.57 45.07 271 46.67 268.4 46.67C267.052 46.6597 265.738 46.2528 264.62 45.5L264.54 43.8C266.3 44.92 267.29 45.31 268.38 45.31C268.731 45.3389 269.084 45.2951 269.417 45.1813C269.75 45.0676 270.057 44.8863 270.317 44.6488C270.577 44.4114 270.785 44.1229 270.928 43.8013C271.072 43.4798 271.147 43.1321 271.15 42.78C271.15 41.4 270.15 40.57 268.4 40.57C267.21 40.57 265.86 40.86 262.4 41.85C263.4 46.72 263.57 47.8 264.06 51.01L262.57 51.31C262.202 48.2452 261.678 45.2012 261 42.19C259.56 42.61 259.29 42.7 257.61 43.27L257.24 41.76Z" fill="#0872ED"/>
<path d="M274.75 19.11H282.28V20.3H266.68V19.11H273.44V5.10999H274.75V10.11H281.16V11.3H274.75V19.11Z" fill="#0872ED"/>
<path d="M278.3 56.83H285.83V58H270.23V56.83H277V42.83H278.31V47.83H284.72V49.02H278.3V56.83Z" fill="#0872ED"/>
<path d="M203.14 71.11C204.79 70.7 205.03 70.65 206.68 70.19C206.3 68.61 206.24 68.37 205.78 66.79L207.24 66.4L208 69.85C209.76 69.41 210.12 69.34 212.3 68.9C211.816 67.9602 211.257 67.0607 210.63 66.21L211.92 65.63C212.646 66.5836 213.272 67.6089 213.79 68.69H214.47C217 68.69 218.47 70.01 218.47 72.24C218.47 74.47 216.86 76 214.29 76C212.946 75.9849 211.636 75.5783 210.52 74.83L210.43 73.13C212.2 74.25 213.19 74.64 214.28 74.64C214.631 74.6689 214.984 74.6251 215.317 74.5113C215.65 74.3976 215.956 74.2163 216.216 73.9789C216.476 73.7414 216.685 73.4529 216.828 73.1313C216.971 72.8098 217.047 72.4621 217.05 72.11C217.05 70.73 216.05 69.9 214.29 69.9C213.1 69.9 211.76 70.19 208.29 71.17C209.29 76.05 209.46 77.17 209.96 80.34L208.46 80.64C208.106 77.5726 207.595 74.5253 206.93 71.51C205.49 71.94 205.21 72.02 203.53 72.6L203.14 71.11Z" fill="white"/>
<path d="M211.75 86.38C213.4 85.97 213.63 85.92 215.28 85.46C214.91 83.88 214.84 83.64 214.38 82.06L215.84 81.67L216.59 85.12C218.36 84.68 218.72 84.61 220.89 84.12C220.414 83.1777 219.859 82.2777 219.23 81.43L220.52 80.85C221.251 81.832 221.878 82.8877 222.39 84H223.07C225.6 84 227.07 85.32 227.07 87.55C227.07 89.78 225.46 91.34 222.89 91.34C221.544 91.3216 220.231 90.9154 219.11 90.17L219 88.42C220.77 89.54 221.75 89.93 222.84 89.93C223.191 89.9604 223.545 89.9177 223.879 89.8045C224.213 89.6913 224.519 89.5101 224.78 89.2723C225.04 89.0346 225.248 88.7454 225.391 88.4232C225.534 88.1009 225.609 87.7525 225.61 87.4C225.61 86.02 224.61 85.19 222.86 85.19C221.67 85.19 220.33 85.48 216.86 86.46C217.86 91.34 218.03 92.46 218.52 95.62L217.03 95.93C216.6 92.43 216.28 90.54 215.5 86.8C214.05 87.23 213.78 87.31 212.1 87.89L211.75 86.38Z" fill="white"/>
<path d="M188.79 96.23C191.162 97.3108 193.417 98.631 195.52 100.17L194.77 101.31C192.911 99.8647 190.899 98.6274 188.77 97.62V107.42H187.48V93.78H181.07V92.54H196.58V93.78H188.79V96.23Z" fill="#0872ED"/>
<path d="M227.62 101.93C229.994 103.016 232.252 104.34 234.36 105.88L233.61 107C231.754 105.55 229.741 104.312 227.61 103.31V113.1H226.31V99.49H219.91V98.25H235.41V99.49H227.62V101.93Z" fill="white"/>
<path d="M292.5 142.5H187.5V181.5H292.5V142.5Z" fill="white"/>
<path d="M292 143V181H188V143H292ZM293 142H187V182H293V142Z" fill="#0872ED"/>
<path d="M292.5 191.5H187.5V230.5H292.5V191.5Z" fill="white"/>
<path d="M292 192V230H188V192H292ZM293 191H187V231H293V191Z" fill="#0872ED"/>
<path d="M221.32 156.17H231.8V157.17C231.189 159.147 230.296 161.027 229.15 162.75C230.995 164.565 232.738 166.481 234.37 168.49L233.3 169.75C231.763 167.704 230.067 165.781 228.23 164C226.177 166.414 223.52 168.24 220.53 169.29L219.67 168C222.131 167.227 224.369 165.872 226.197 164.052C228.024 162.231 229.387 159.998 230.17 157.54H221.32V156.17Z" fill="#0872ED"/>
<path d="M244.08 169.52V160.81C242.037 161.972 239.899 162.959 237.69 163.76L236.9 162.43C241.536 161.143 245.703 158.546 248.9 154.95L250.11 156.09C248.723 157.497 247.202 158.766 245.57 159.88V169.52H244.08Z" fill="#0872ED"/>
<path d="M254.53 167.48C261.59 166.7 265.09 163.96 267.44 157.48L268.8 158.37C266.35 165 262.35 168.05 255 169L254.53 167.48ZM255.77 156.33C257.305 157.302 258.724 158.446 260 159.74L259 161C257.781 159.693 256.411 158.535 254.92 157.55L255.77 156.33Z" fill="#0872ED"/>
<path d="M282.06 156.63L283.36 158.2C282.36 164.93 278.59 168.8 271.94 169.79L271.26 168.43C275.1 167.8 276.97 166.92 278.96 164.79C280.609 162.869 281.652 160.503 281.96 157.99H274.59C273.838 159.848 272.695 161.522 271.24 162.9L270.12 162C271.704 160.513 272.902 158.663 273.61 156.61L282.06 156.63ZM282.58 153.98C283.316 154.794 283.957 155.69 284.49 156.65L283.67 157.16C283.145 156.188 282.508 155.282 281.77 154.46L282.58 153.98ZM284.91 153.98C285.583 154.75 286.149 155.608 286.59 156.53L285.78 157.02C285.296 156.102 284.726 155.232 284.08 154.42L284.91 153.98Z" fill="#0872ED"/>
<path d="M224.5 204.29H229.34L230.02 202.39L231.32 202.54L230.67 204.29H237.74V217.84H224.5V204.29ZM225.74 205.43V208.43H236.5V205.43H225.74ZM225.74 209.51V212.57H236.5V209.51H225.74ZM225.74 213.64V216.7H236.5V213.64H225.74Z" fill="#0872ED"/>
<path d="M248.23 216.87C245.23 217.33 243.45 217.57 240.29 217.87L240.12 216.67C241.96 216.51 242.25 216.48 244.2 216.28V214.88H241V213.81H244.2V212.81H240.82V207.47H244.2V206.52H240.26V205.38H244.2V204.3C243.184 204.456 242.158 204.546 241.13 204.57L240.62 203.57C243.037 203.509 245.441 203.191 247.79 202.62L248.57 203.5C247.529 203.801 246.466 204.018 245.39 204.15V205.37H248.93V206.51H245.39V207.46H248.76V212.8H245.39V213.8H248.57V214.87H245.39V216.11C246.63 215.96 246.85 215.93 248.39 215.69L248.23 216.87ZM242 209.61H244.2V208.47H242V209.61ZM242 211.77H244.2V210.63H242V211.77ZM245.38 209.61H247.56V208.47H245.39L245.38 209.61ZM245.38 211.77H247.56V210.63H245.39L245.38 211.77ZM249.26 207.52V206.4H251V202.56H252.24V206.4H255.4V210.26C255.32 217.36 254.99 218.26 252.48 218.2H251.34L251 217H252.25H252.33C252.685 217.03 253.039 216.934 253.33 216.73C253.86 216.22 254.11 214.06 254.11 210.16V207.51H252.19C252.06 212.75 251.19 215.91 249.08 218.17L248 217.43C250 215.19 250.75 212.62 250.92 207.52H249.26Z" fill="#0872ED"/>
<path d="M215 157.37L213.54 152.74C213.497 152.6 213.424 152.47 213.325 152.361C213.227 152.253 213.105 152.167 212.97 152.11C212.837 152.048 212.692 152.015 212.545 152.015C212.398 152.015 212.253 152.048 212.12 152.11L207.58 154.48C207.352 154.607 207.182 154.818 207.107 155.068C207.033 155.318 207.059 155.588 207.18 155.819C207.302 156.05 207.509 156.225 207.757 156.305C208.006 156.386 208.276 156.366 208.51 156.25L210.61 155.15C208.4 160.23 204.88 165.21 196.7 168.67L197.77 166.14C197.873 165.896 197.875 165.621 197.776 165.375C197.677 165.13 197.484 164.934 197.24 164.83C196.996 164.727 196.721 164.725 196.475 164.824C196.23 164.923 196.034 165.116 195.93 165.36L193.82 170.3C193.76 170.43 193.73 170.572 193.73 170.715C193.73 170.858 193.76 171 193.82 171.13C193.881 171.258 193.969 171.371 194.078 171.463C194.186 171.554 194.313 171.621 194.45 171.66L199.38 173H199.64C199.771 173.017 199.905 173.008 200.032 172.974C200.16 172.939 200.28 172.88 200.385 172.799C200.49 172.718 200.578 172.618 200.644 172.503C200.71 172.388 200.753 172.261 200.77 172.13C200.787 171.999 200.778 171.865 200.744 171.737C200.709 171.61 200.65 171.49 200.569 171.385C200.488 171.28 200.387 171.192 200.273 171.126C200.158 171.06 200.031 171.017 199.9 171L197.67 170.4C206.38 166.67 210.13 161.33 212.49 155.89L213.12 157.89C213.186 158.101 213.32 158.284 213.501 158.41C213.682 158.537 213.899 158.6 214.12 158.59C214.219 158.605 214.32 158.605 214.42 158.59C214.652 158.496 214.84 158.319 214.947 158.093C215.054 157.867 215.073 157.609 215 157.37Z" fill="#0872ED"/>
</g>
<defs>
<clipPath id="clip0_41_608">
<rect width="128" height="240" fill="white"/>
</clipPath>
<clipPath id="clip1_41_608">
<rect width="128" height="240" fill="white" transform="translate(176)"/>
</clipPath>
</defs>
</svg>
