<svg width="128" height="240" viewBox="0 0 128 240" fill="none" xmlns="http://www.w3.org/2000/svg">
<g clip-path="url(#clip0_35_330)">
<path d="M0.5 71.38C6.27528 71.1579 12.0045 70.2584 17.57 68.7L34.91 122.07C23.7361 125.416 12.1616 127.24 0.5 127.49V71.38Z" fill="white"/>
<path d="M17.24 69.31L34.24 121.74C23.4356 124.93 12.2615 126.698 1 127V71.86C6.49083 71.6116 11.9373 70.7564 17.24 69.31ZM17.9 68.09C12.0723 69.7625 6.05984 70.7064 0 70.9L0 128C12.0519 127.785 24.0157 125.901 35.55 122.4L17.9 68.09Z" fill="#0872ED"/>
<path d="M23.1799 66.88C28.6031 64.8702 33.7691 62.2251 38.5699 59L71.5699 104.4C61.9964 111.048 51.5688 116.373 40.5699 120.23L23.1799 66.88Z" fill="#0872ED"/>
<path d="M38.4501 59.71L70.8501 104.29C61.564 110.688 51.4777 115.839 40.8501 119.61L23.8501 67.18C28.9938 65.2375 33.907 62.7323 38.5001 59.71M38.7401 58.34C33.7228 61.7457 28.3011 64.5136 22.6001 66.58L40.2001 120.89C51.5946 116.952 62.3849 111.446 72.2601 104.53L38.6901 58.34H38.7401Z" fill="#0872ED"/>
<path d="M59 38.57C62.2182 33.7681 64.8565 28.6022 66.86 23.18L120.23 40.52C116.371 51.518 111.046 61.9454 104.4 71.52L59 38.57Z" fill="white"/>
<path d="M67.1801 23.8L119.61 40.8C115.839 51.4276 110.688 61.5139 104.29 70.8L59.7101 38.45C62.7324 33.8569 65.2376 28.9437 67.1801 23.8ZM66.5801 22.55C64.5137 28.251 61.7457 33.6727 58.3401 38.69L104.53 72.26C111.446 62.3848 116.952 51.5945 120.89 40.2L66.5801 22.55Z" fill="#0872ED"/>
<path d="M43.3401 55.56C47.8722 51.9729 51.973 47.8722 55.5601 43.34L100.95 76.34C93.8763 85.6214 85.5928 93.9149 76.3201 101L43.3401 55.56Z" fill="white"/>
<path d="M55.6499 44L100.24 76.4C93.366 85.339 85.3589 93.3461 76.4199 100.22L43.9999 55.65C48.298 52.2048 52.2047 48.2981 55.6499 44ZM55.4599 42.63C51.7319 47.4156 47.4296 51.7246 42.6499 55.46L76.2099 101.66C85.8229 94.387 94.3869 85.823 101.66 76.21L55.4599 42.65V42.63Z" fill="#0872ED"/>
<path d="M68.7 17.57C70.2599 12.0048 71.1594 6.27544 71.38 0.5H127.49C127.24 12.1649 125.416 23.7427 122.07 34.92L68.7 17.57Z" fill="white"/>
<path d="M127 1C126.708 12.274 124.947 23.4618 121.76 34.28L69.3301 17.28C70.7713 11.9633 71.6198 6.50337 71.8601 1H127ZM128 0H70.9001C70.7065 6.05984 69.7626 12.0723 68.0901 17.9L122.4 35.55C125.901 24.0157 127.785 12.0519 128 0Z" fill="#0872ED"/>
<path d="M68.8301 61.54H70.0701V64.42H76.5501V72.34H70.0701V77.25H68.8301V72.34H62.3601V64.42H68.8301V61.54ZM63.6001 71.21H68.8301V65.54H63.6001V71.21ZM75.3101 65.54H70.0701V71.21H75.3101V65.54Z" fill="#0872ED"/>
<path d="M66.3 34C67.95 33.59 68.19 33.54 69.84 33.08C69.46 31.5 69.4 31.26 68.94 29.68L70.4 29.29L71.15 32.74C72.91 32.3 73.27 32.23 75.45 31.79C74.9653 30.8538 74.4069 29.9577 73.78 29.11L75.07 28.53C75.8004 29.4806 76.4273 30.5064 76.94 31.59C77.23 31.59 77.45 31.59 77.62 31.59C80.16 31.59 81.62 32.92 81.62 35.14C81.62 37.36 80 38.93 77.45 38.93C76.1058 38.9184 74.7947 38.5115 73.68 37.76L73.59 36.06C75.36 37.18 76.35 37.57 77.44 37.57C77.7943 37.5992 78.1508 37.5543 78.4867 37.4381C78.8226 37.3219 79.1307 37.1371 79.3913 36.8953C79.6519 36.6536 79.8592 36.3602 80.0002 36.0339C80.1412 35.7076 80.2126 35.3555 80.21 35C80.21 33.62 79.21 32.79 77.45 32.79C76.26 32.79 74.92 33.08 71.45 34.07C72.45 38.94 72.63 40.07 73.12 43.23L71.62 43.53C71.266 40.4659 70.7553 37.4219 70.09 34.41C68.65 34.83 68.38 34.92 66.69 35.49L66.3 34Z" fill="#0872ED"/>
<path d="M81.24 41.76C82.89 41.35 83.13 41.3 84.78 40.84C84.41 39.26 84.34 39.02 83.88 37.44L85.34 37.05L86.09 40.5C87.86 40.06 88.21 39.99 90.39 39.5C89.9129 38.5595 89.3541 37.6627 88.72 36.82L90.02 36.24C90.7431 37.1956 91.3695 38.2206 91.89 39.3C92.17 39.3 92.4 39.3 92.57 39.3C95.1 39.3 96.57 40.63 96.57 42.85C96.57 45.07 95 46.67 92.4 46.67C91.0524 46.6597 89.7377 46.2528 88.62 45.5L88.54 43.8C90.3 44.92 91.29 45.31 92.38 45.31C92.7309 45.3389 93.084 45.2951 93.4172 45.1813C93.7504 45.0676 94.0566 44.8863 94.3165 44.6488C94.5765 44.4114 94.7847 44.1229 94.9281 43.8013C95.0715 43.4798 95.1471 43.1321 95.15 42.78C95.15 41.4 94.15 40.57 92.4 40.57C91.21 40.57 89.86 40.86 86.4 41.85C87.4 46.72 87.57 47.8 88.06 51.01L86.57 51.31C86.2025 48.2452 85.6785 45.2012 85 42.19C83.56 42.61 83.29 42.7 81.61 43.27L81.24 41.76Z" fill="#0872ED"/>
<path d="M98.7499 19.11H106.28V20.3H90.6799V19.11H97.4399V5.10999H98.7499V10.11H105.16V11.3H98.7499V19.11Z" fill="#0872ED"/>
<path d="M102.3 56.83H109.83V58H94.23V56.83H101V42.83H102.31V47.83H108.72V49.02H102.3V56.83Z" fill="#0872ED"/>
<path d="M27.1399 71.11C28.7899 70.7 29.0299 70.65 30.6799 70.19C30.2999 68.61 30.2399 68.37 29.7799 66.79L31.2399 66.4L31.9999 69.85C33.7599 69.41 34.1199 69.34 36.2999 68.9C35.8159 67.9602 35.2574 67.0607 34.6299 66.21L35.9199 65.63C36.6459 66.5836 37.2725 67.6089 37.7899 68.69H38.4699C40.9999 68.69 42.4699 70.01 42.4699 72.24C42.4699 74.47 40.8599 76 38.2899 76C36.9462 75.9849 35.6361 75.5783 34.5199 74.83L34.4299 73.13C36.1999 74.25 37.1899 74.64 38.2799 74.64C38.6308 74.6689 38.9839 74.6251 39.3171 74.5113C39.6503 74.3976 39.9565 74.2163 40.2164 73.9789C40.4764 73.7414 40.6846 73.4529 40.828 73.1313C40.9714 72.8098 41.047 72.4621 41.0499 72.11C41.0499 70.73 40.0499 69.9 38.2899 69.9C37.0999 69.9 35.7599 70.19 32.2899 71.17C33.2899 76.05 33.4599 77.17 33.9599 80.34L32.4599 80.64C32.1058 77.5726 31.5952 74.5253 30.9299 71.51C29.4899 71.94 29.2099 72.02 27.5299 72.6L27.1399 71.11Z" fill="white"/>
<path d="M35.75 86.38C37.4 85.97 37.63 85.92 39.28 85.46C38.91 83.88 38.84 83.64 38.38 82.06L39.84 81.67L40.59 85.12C42.36 84.68 42.72 84.61 44.89 84.12C44.4143 83.1777 43.8589 82.2777 43.23 81.43L44.52 80.85C45.2513 81.832 45.8781 82.8877 46.39 84H47.07C49.6 84 51.07 85.32 51.07 87.55C51.07 89.78 49.46 91.34 46.89 91.34C45.5437 91.3216 44.2313 90.9154 43.11 90.17L43 88.42C44.77 89.54 45.75 89.93 46.84 89.93C47.1912 89.9604 47.5449 89.9177 47.8788 89.8045C48.2127 89.6913 48.5194 89.5101 48.7797 89.2723C49.04 89.0346 49.2482 88.7454 49.3911 88.4232C49.534 88.1009 49.6086 87.7525 49.61 87.4C49.61 86.02 48.61 85.19 46.86 85.19C45.67 85.19 44.33 85.48 40.86 86.46C41.86 91.34 42.03 92.46 42.52 95.62L41.03 95.93C40.6 92.43 40.28 90.54 39.5 86.8C38.05 87.23 37.78 87.31 36.1 87.89L35.75 86.38Z" fill="white"/>
<path d="M12.7901 96.23C15.1617 97.3108 17.4167 98.631 19.5201 100.17L18.7701 101.31C16.9108 99.8647 14.8988 98.6274 12.7701 97.62V107.42H11.4801V93.78H5.07007V92.54H20.5801V93.78H12.7901V96.23Z" fill="#0872ED"/>
<path d="M51.6199 101.93C53.9939 103.016 56.252 104.34 58.3599 105.88L57.6099 107C55.7541 105.55 53.7415 104.312 51.6099 103.31V113.1H50.3099V99.49H43.9099V98.25H59.4099V99.49H51.6199V101.93Z" fill="white"/>
<path d="M116.5 142.5H11.5V181.5H116.5V142.5Z" fill="white"/>
<path d="M116 143V181H12V143H116ZM117 142H11V182H117V142Z" fill="#0872ED"/>
<path d="M116.5 191.5H11.5V230.5H116.5V191.5Z" fill="white"/>
<path d="M116 192V230H12V192H116ZM117 191H11V231H117V191Z" fill="#0872ED"/>
<path d="M45.3199 156.17H55.7999V157.17C55.1886 159.147 54.2962 161.027 53.1499 162.75C54.9954 164.565 56.7381 166.481 58.3699 168.49L57.2999 169.75C55.7627 167.704 54.0675 165.781 52.2299 164C50.1771 166.414 47.5198 168.24 44.5299 169.29L43.6699 168C46.1308 167.227 48.3694 165.872 50.1969 164.052C52.0244 162.231 53.3871 159.998 54.1699 157.54H45.3199V156.17Z" fill="#0872ED"/>
<path d="M68.0799 169.52V160.81C66.0369 161.972 63.8993 162.959 61.6899 163.76L60.8999 162.43C65.5364 161.143 69.7031 158.546 72.8999 154.95L74.1099 156.09C72.7226 157.497 71.2021 158.766 69.5699 159.88V169.52H68.0799Z" fill="#0872ED"/>
<path d="M78.53 167.48C85.59 166.7 89.09 163.96 91.44 157.48L92.8 158.37C90.35 165 86.35 168.05 79 169L78.53 167.48ZM79.77 156.33C81.305 157.302 82.7241 158.446 84 159.74L83 161C81.7809 159.693 80.4114 158.535 78.92 157.55L79.77 156.33Z" fill="#0872ED"/>
<path d="M106.06 156.63L107.36 158.2C106.36 164.93 102.59 168.8 95.9401 169.79L95.2601 168.43C99.1001 167.8 100.97 166.92 102.96 164.79C104.609 162.869 105.652 160.503 105.96 157.99H98.5901C97.8378 159.848 96.6954 161.522 95.2401 162.9L94.1201 162C95.704 160.513 96.9019 158.663 97.6101 156.61L106.06 156.63ZM106.58 153.98C107.316 154.794 107.957 155.69 108.49 156.65L107.67 157.16C107.145 156.188 106.508 155.282 105.77 154.46L106.58 153.98ZM108.91 153.98C109.583 154.75 110.149 155.608 110.59 156.53L109.78 157.02C109.296 156.102 108.726 155.232 108.08 154.42L108.91 153.98Z" fill="#0872ED"/>
<path d="M48.5 204.29H53.34L54.02 202.39L55.32 202.54L54.67 204.29H61.74V217.84H48.5V204.29ZM49.74 205.43V208.43H60.5V205.43H49.74ZM49.74 209.51V212.57H60.5V209.51H49.74ZM49.74 213.64V216.7H60.5V213.64H49.74Z" fill="#0872ED"/>
<path d="M72.2301 216.87C69.2301 217.33 67.4501 217.57 64.2901 217.87L64.1201 216.67C65.9601 216.51 66.2501 216.48 68.2001 216.28V214.88H65.0001V213.81H68.2001V212.81H64.8201V207.47H68.2001V206.52H64.2601V205.38H68.2001V204.3C67.1836 204.456 66.1582 204.546 65.1301 204.57L64.6201 203.57C67.0371 203.509 69.4407 203.191 71.7901 202.62L72.5701 203.5C71.529 203.801 70.4657 204.018 69.3901 204.15V205.37H72.9301V206.51H69.3901V207.46H72.7601V212.8H69.3901V213.8H72.5701V214.87H69.3901V216.11C70.6301 215.96 70.8501 215.93 72.3901 215.69L72.2301 216.87ZM66.0001 209.61H68.2001V208.47H66.0001V209.61ZM66.0001 211.77H68.2001V210.63H66.0001V211.77ZM69.3801 209.61H71.5601V208.47H69.3901L69.3801 209.61ZM69.3801 211.77H71.5601V210.63H69.3901L69.3801 211.77ZM73.2601 207.52V206.4H75.0001V202.56H76.2401V206.4H79.4001V210.26C79.3201 217.36 78.9901 218.26 76.4801 218.2H75.3401L75.0001 217H76.2501H76.3301C76.6848 217.03 77.0387 216.934 77.3301 216.73C77.8601 216.22 78.1101 214.06 78.1101 210.16V207.51H76.1901C76.0601 212.75 75.1901 215.91 73.0801 218.17L72.0001 217.43C74.0001 215.19 74.7501 212.62 74.9201 207.52H73.2601Z" fill="#0872ED"/>
<path d="M38.9999 157.37L37.5399 152.74C37.497 152.6 37.4237 152.47 37.3251 152.361C37.2266 152.253 37.1054 152.167 36.9699 152.11C36.8369 152.048 36.6918 152.015 36.5449 152.015C36.398 152.015 36.2529 152.048 36.1199 152.11L31.5799 154.48C31.3516 154.607 31.1821 154.818 31.1074 155.068C31.0328 155.318 31.059 155.588 31.1804 155.819C31.3019 156.05 31.509 156.225 31.7574 156.305C32.0059 156.386 32.2759 156.366 32.5099 156.25L34.6099 155.15C32.3999 160.23 28.8799 165.21 20.6999 168.67L21.7699 166.14C21.8731 165.896 21.8753 165.621 21.7759 165.375C21.6766 165.13 21.4838 164.934 21.2399 164.83C20.9959 164.727 20.7209 164.725 20.4753 164.824C20.2296 164.923 20.0335 165.116 19.9299 165.36L17.8199 170.3C17.7605 170.43 17.7297 170.572 17.7297 170.715C17.7297 170.858 17.7605 171 17.8199 171.13C17.8813 171.258 17.9692 171.371 18.0778 171.463C18.1865 171.554 18.3133 171.621 18.4499 171.66L23.3799 173H23.6399C23.7712 173.017 23.9046 173.008 24.0325 172.974C24.1604 172.939 24.2802 172.88 24.3851 172.799C24.49 172.718 24.578 172.618 24.644 172.503C24.7101 172.388 24.7528 172.261 24.7699 172.13C24.787 171.999 24.778 171.865 24.7435 171.737C24.7091 171.61 24.6497 171.49 24.5689 171.385C24.4882 171.28 24.3875 171.192 24.2727 171.126C24.1579 171.06 24.0312 171.017 23.8999 171L21.6699 170.4C30.3799 166.67 34.1299 161.33 36.4899 155.89L37.1199 157.89C37.1859 158.101 37.3198 158.284 37.5007 158.41C37.6816 158.537 37.8993 158.6 38.1199 158.59C38.2193 158.605 38.3205 158.605 38.4199 158.59C38.6516 158.496 38.8397 158.319 38.9471 158.093C39.0544 157.867 39.0733 157.609 38.9999 157.37Z" fill="#0872ED"/>
</g>
<defs>
<clipPath id="clip0_35_330">
<rect width="128" height="240" fill="white"/>
</clipPath>
</defs>
</svg>
