<svg width="160" height="270" viewBox="0 0 160 270" fill="none" xmlns="http://www.w3.org/2000/svg">
<g clip-path="url(#clip0_36_437)">
<path d="M82.6899 36.17C73.0716 36.1696 63.4605 35.6422 53.8999 34.59L65.4899 0.52002C71.2599 0.89002 77.0499 1.07002 82.6899 1.07002C86.2999 1.07002 90.0999 1.00002 93.9999 0.83002L105.68 35.17C98.0999 35.83 90.3699 36.17 82.6899 36.17Z" fill="white"/>
<path d="M65.84 1.05C71.49 1.39 77.16 1.57 82.69 1.57C86.19 1.57 89.87 1.49 93.69 1.34L105 34.73C97.64 35.35 90.14 35.67 82.69 35.67C73.2998 35.6677 63.9164 35.1637 54.58 34.16L65.84 1.05ZM65.14 0.05L53.23 35C63.0115 36.0996 72.8469 36.6505 82.69 36.65C90.69 36.65 98.58 36.2967 106.36 35.59L94.35 0.31C90.48 0.48 86.6 0.57 82.69 0.57C76.7966 0.57 70.9466 0.38 65.14 0V0.05Z" fill="#0872ED"/>
<path d="M82.6899 204.7C54.7732 204.842 27.0318 200.282 0.629883 191.21L11.2899 159.88C34.5256 166.408 58.5548 169.679 82.6899 169.6C104.92 169.656 127.066 166.89 148.6 161.37L159.36 193C134.566 200.859 108.699 204.806 82.6899 204.7Z" fill="white"/>
<path d="M11.61 160.49C34.7491 166.945 58.6676 170.179 82.69 170.1C104.807 170.167 126.844 167.446 148.28 162L158.73 192.72C134.141 200.45 108.505 204.332 82.73 204.23C55.0227 204.368 27.488 199.863 1.27 190.9L11.61 160.49ZM11 159.26L0 191.52C26.5988 200.694 54.5538 205.319 82.69 205.2C108.921 205.295 135.006 201.29 160 193.33L148.92 160.77C127.288 166.354 105.031 169.153 82.69 169.1C58.4522 169.167 34.3233 165.855 11 159.26Z" fill="#0872ED"/>
<path d="M82.69 78.3C68.4592 78.3084 54.2517 77.1512 40.21 74.84L51.58 41.42C61.9077 42.6043 72.2946 43.1986 82.69 43.2C91.09 43.2 99.6 42.81 108.01 42.02L119.47 75.73C107.285 77.4486 94.9951 78.3074 82.69 78.3Z" fill="white"/>
<path d="M51.92 42C62.1364 43.1474 72.4095 43.715 82.6901 43.7C90.9801 43.7 99.37 43.32 107.69 42.56L118.8 75.31C106.836 76.9761 94.7699 77.8081 82.6901 77.8C68.6857 77.8061 54.7037 76.6824 40.8801 74.44L51.92 42ZM51.2401 40.92L39.55 75.24C53.8068 77.618 68.2363 78.8087 82.6901 78.8C95.2212 78.8077 107.737 77.9154 120.14 76.13L108.35 41.49C99.9201 42.29 91.3501 42.7 82.6901 42.7C72.1804 42.7017 61.6794 42.094 51.2401 40.88V40.92Z" fill="#0872ED"/>
<path d="M82.6901 162.57C59.3264 162.636 36.0659 159.469 13.5701 153.16L24.4801 121.1C43.5885 125.367 63.111 127.504 82.6901 127.47C100.358 127.492 117.985 125.756 135.31 122.29L146.31 154.65C125.522 159.959 104.146 162.62 82.6901 162.57Z" fill="white"/>
<path d="M24.8099 121.69C43.8147 125.902 63.224 128.018 82.6899 128C100.245 128.017 117.759 126.309 134.98 122.9L145.67 154.33C125.077 159.541 103.912 162.151 82.6699 162.1C59.5306 162.167 36.4918 159.055 14.1999 152.85L24.7899 121.72M24.1299 120.54L12.9099 153.54C35.6071 159.949 59.0853 163.17 82.6699 163.11C104.371 163.151 125.988 160.426 147 155L135.68 121.72C118.237 125.244 100.485 127.013 82.6899 127C62.9968 127.034 43.3616 124.868 24.1499 120.54H24.1299Z" fill="#0872ED"/>
<path d="M82.69 120.44C63.8844 120.463 45.1328 118.427 26.77 114.37L37.91 81.61C52.707 84.0954 67.6858 85.3398 82.69 85.33C95.7709 85.3329 108.835 84.3904 121.78 82.51L133.02 115.51C116.444 118.791 99.5873 120.442 82.69 120.44Z" fill="white"/>
<path d="M38.2499 82.18C52.9377 84.6165 67.8014 85.8373 82.6899 85.83C95.6562 85.8345 108.606 84.9088 121.44 83.06L122.88 87.29L132.36 115.17C115.996 118.358 99.3616 119.955 82.6899 119.94C64.106 119.964 45.5743 117.972 27.4199 114L36.4999 87.29L38.2499 82.18ZM37.5699 81.05L35.5699 86.97L26.1299 114.73C44.6994 118.882 63.6718 120.965 82.6999 120.94C99.8235 120.966 116.907 119.291 133.7 115.94L123.85 86.94L122.15 81.94C109.095 83.8648 95.916 84.8274 82.7199 84.82C67.6003 84.8311 52.5068 83.5666 37.5999 81.04L37.5699 81.05Z" fill="#0872ED"/>
<path d="M78.1899 15.48H76.0999V16.55H79.0999V17.64H71.6899V16.55H74.8499V15.48H72.3399V14.41H74.8499V13.41H71.8499V12.32H74.8499V11.4H76.0999V12.32H78.9999V13.41H76.0999V14.41H78.1899V15.48ZM78.6399 25.83C78.6399 26.89 78.2499 27.11 76.6399 27.11H75.5299L75.1099 25.92C75.6999 25.92 76.2599 25.92 76.7199 25.92C77.1799 25.92 77.3999 25.84 77.3999 25.55V23.85H73.5499V27H72.2899V18.32H78.6399V25.83ZM77.3999 19.46H73.5499V20.58H77.3999V19.46ZM77.3999 21.67H73.5499V22.79H77.3999V21.67ZM78.6099 14.55C79.7493 13.6732 80.6106 12.4854 81.0899 11.13L82.2499 11.54L81.9999 12H85.9999V13L84.5499 15.49H86.6199V18.56H87.4399V19.68H86.6199V22.76H83.2999V25.7C83.2999 26.76 82.7799 27.13 81.2999 27.15H80.0699L79.5599 25.89H80.5599H81.2599C81.8199 25.89 82.0899 25.72 82.0899 25.39V22.69H79.2899V21.6H82.0899V19.6H79.1399V18.52H82.0599V16.57H79.5499V15.45H83.1299L84.4599 13.17H81.4599C80.9555 13.9879 80.332 14.726 79.6099 15.36L78.6099 14.55ZM85.3799 16.55H83.2999V18.5H85.3799V16.55ZM85.3799 19.62H83.2999V21.62H85.3799V19.62Z" fill="#0872ED"/>
<path d="M77.05 65C75.5209 65.8473 73.9005 66.5183 72.22 67L71.74 65.81C73.6257 65.3258 75.4433 64.6069 77.15 63.67L77.05 65ZM72.12 60.79L72.71 56.59H77.71V54.63H72.1V53.51H79V57.68H73.8L73.53 59.6H78.92V62.25C78.8 67.67 78.41 68.57 76.21 68.54H74.51L74 67.3H75.21H76.21C76.389 67.3157 76.5687 67.2785 76.7269 67.1932C76.885 67.1079 77.0147 66.9782 77.1 66.82C77.5039 65.3319 77.6759 63.7905 77.61 62.25V60.74L72.12 60.79ZM73.19 61.3C74.2078 61.7334 75.1822 62.2624 76.1 62.88L75.48 63.97C74.5935 63.2788 73.6095 62.7228 72.56 62.32L73.19 61.3ZM84.93 65.14C83.294 65.9675 81.583 66.6372 79.82 67.14L79.32 65.93C81.2915 65.4261 83.1976 64.6945 85 63.75L84.93 65.14ZM79.73 60.79L80.33 56.59H85.51V54.63H79.72V53.51H86.72V57.68H81.38L81.11 59.6H86.94V62.22C86.9524 63.9311 86.7746 65.6382 86.41 67.31C86.07 68.31 85.68 68.54 84.41 68.54H82.62L82.18 67.3H83.3C83.64 67.3 84 67.3 84.3 67.3C84.4797 67.3212 84.6616 67.2865 84.8208 67.2006C84.9801 67.1147 85.109 66.9818 85.19 66.82C85.5788 65.2168 85.7537 63.5691 85.71 61.92V60.74L79.73 60.79ZM80.84 61.42C81.9378 61.7407 82.9973 62.1799 84 62.73L83.46 63.85C82.454 63.2359 81.3758 62.7488 80.25 62.4L80.84 61.42Z" fill="#0872ED"/>
<path d="M79 95.4H80.24V98.27H86.72V106.19H80.19V111.11H79V106.19H72.47V98.27H79V95.4ZM73.77 105.07H79V99.39H73.72L73.77 105.07ZM85.48 99.39H80.19V105.07H85.43L85.48 99.39Z" fill="#0872ED"/>
<path d="M77 141.54H73.7L73.39 144.31H76.89V146.31C76.79 150.75 76.35 151.56 74.05 151.55H72.68L72.27 150.3L73.61 150.36H74.21C74.3843 150.363 74.5562 150.32 74.7088 150.236C74.8614 150.151 74.9894 150.029 75.08 149.88C75.4838 148.711 75.657 147.475 75.59 146.24V145.44H72L72.51 140.44H75.7V137.66H72V136.54H77V141.54ZM82.79 147.22V149.65C83.96 149.52 84.15 149.5 85.21 149.33C84.926 148.827 84.5909 148.354 84.21 147.92L85.21 147.31C86.1023 148.503 86.8414 149.803 87.41 151.18L86.41 151.74L85.81 150.4C82.94 150.83 81.07 151.03 77.06 151.3L76.69 150.14C78.95 149.99 79.3 149.97 81.53 149.79V147.22H77.59V142.14H81.5V140.47C79.8 140.59 79.5 140.61 77.5 140.69L77.25 139.57L78.6 139.5C79.301 138.327 79.8234 137.057 80.15 135.73L81.39 136.07C81.0941 137.255 80.6258 138.391 80 139.44C81.62 139.398 83.2361 139.261 84.84 139.03C84.4304 138.385 83.9581 137.782 83.43 137.23L84.49 136.6C85.6498 137.884 86.5952 139.346 87.29 140.93L86.2 141.54C86.0016 141.024 85.7746 140.52 85.52 140.03C84.5889 140.203 83.6464 140.306 82.7 140.34V142.14H86.63V147.22H82.79ZM78.88 146.08H81.5V143.26H78.83L78.88 146.08ZM82.79 146.08H85.46V143.26H82.74L82.79 146.08Z" fill="#0872ED"/>
<path d="M56.29 181H68.84V193.47H56.29V181ZM67.37 192.11V182.36H57.77V192.11H67.37Z" fill="#0872ED"/>
<path d="M73 192.32C80.06 191.54 83.56 188.8 85.91 182.32L87.27 183.21C84.82 189.87 80.82 192.95 73.46 193.85L73 192.32ZM74.25 181.17C75.7796 182.145 77.1922 183.293 78.46 184.59L77.46 185.81C76.2409 184.503 74.8714 183.345 73.38 182.36L74.25 181.17Z" fill="#0872ED"/>
<path d="M100.51 181.47L101.82 183.04C100.86 189.773 97.05 193.637 90.39 194.63L89.71 193.27C93.55 192.64 95.42 191.76 97.41 189.63C99.0626 187.711 100.107 185.344 100.41 182.83H93C92.2448 184.687 91.1067 186.363 89.66 187.75L88.53 186.86C90.1139 185.374 91.3118 183.524 92.02 181.47H100.51ZM101.03 178.82C101.766 179.634 102.407 180.53 102.94 181.49L102.12 182C101.595 181.028 100.958 180.122 100.22 179.3L101.03 178.82ZM103.36 178.82C104.033 179.592 104.601 180.449 105.05 181.37L104.23 181.86C103.745 180.942 103.176 180.072 102.53 179.26L103.36 178.82Z" fill="#0872ED"/>
<path d="M20.5 265.42V226.42H139.5V265.58L20.5 265.42Z" fill="#0872ED"/>
<path d="M139 226.92V265.08L21 264.92V226.92H139ZM140 225.92H20V265.92L140 266.08V225.92Z" fill="#0872ED"/>
<path d="M64.5601 240H69.4101L70.0901 238.1L71.3801 238.25L70.7401 240H77.8101V253.55H64.5601V240ZM65.8101 241.14V244.14H76.5701V241.14H65.8101ZM65.8101 245.22V248.28H76.5701V245.22H65.8101ZM65.8101 249.35V252.41H76.5701V249.35H65.8101Z" fill="#F2F2F2"/>
<path d="M88.2999 252.58C85.2999 253.04 83.5199 253.27 80.3599 253.58L80.1899 252.37C82.0199 252.22 82.3099 252.19 84.2699 251.98V250.59H81.0699V249.52H84.2699V248.52H80.8799V243.18H84.2699V242.23H80.2699V241.09H84.2699V240C83.2506 240.16 82.2216 240.25 81.1899 240.27L80.6799 239.27C83.0989 239.195 85.5027 238.859 87.8499 238.27L88.6399 239.15C87.5986 239.45 86.5353 239.667 85.4599 239.8V241.02H88.9999V242.16H85.4599V243.11H88.8199V248.45H85.4599V249.45H88.6399V250.52H85.4599V251.76C86.6999 251.61 86.9199 251.57 88.4599 251.33L88.2999 252.58ZM82.0699 245.32H84.2699V244.18H82.0699V245.32ZM82.0699 247.48H84.2699V246.34H82.0699V247.48ZM85.4599 245.32H87.6299V244.18H85.4599V245.32ZM85.4599 247.48H87.6299V246.34H85.4599V247.48ZM89.3299 243.23V242.11H90.9999V238.27H92.2399V242.11H95.4099V246C95.3199 253.1 94.9999 254 92.4799 253.93H91.3799L91.0199 252.71H92.2599H92.3499C92.7044 252.738 93.0578 252.643 93.3499 252.44C93.8699 251.93 94.1299 249.77 94.1299 245.88V243.23H92.2599C92.1199 248.46 91.1999 251.63 89.1499 253.89L88.0799 253.14C90.0799 250.9 90.8299 248.33 90.9999 243.23H89.3299Z" fill="#F2F2F2"/>
</g>
<defs>
<clipPath id="clip0_36_437">
<rect width="160" height="270" fill="white"/>
</clipPath>
</defs>
</svg>
