<svg width="128" height="240" viewBox="0 0 128 240" fill="none" xmlns="http://www.w3.org/2000/svg">
<g clip-path="url(#clip0_35_295)">
<path d="M0.5 71.38C6.27528 71.1579 12.0045 70.2584 17.57 68.7L34.91 122.07C23.7361 125.416 12.1616 127.24 0.5 127.49V71.38Z" fill="white"/>
<path d="M17.24 69.31L34.24 121.74C23.4356 124.93 12.2615 126.698 1 127V71.86C6.49083 71.6116 11.9373 70.7564 17.24 69.31ZM17.9 68.09C12.0723 69.7625 6.05984 70.7064 0 70.9L0 128C12.0519 127.785 24.0157 125.901 35.55 122.4L17.9 68.09Z" fill="#0872ED"/>
<path d="M23.1801 66.88C28.6032 64.8702 33.7692 62.2251 38.5701 59L71.5701 104.4C61.9966 111.048 51.569 116.373 40.5701 120.23L23.1801 66.88Z" fill="white"/>
<path d="M38.45 59.71L70.85 104.29C61.5626 110.686 51.4766 115.837 40.85 119.61L23.85 67.18C28.9937 65.2375 33.9068 62.7323 38.5 59.71M38.74 58.34C33.7227 61.7457 28.301 64.5136 22.6 66.58L40.2 120.89C51.5944 116.952 62.3848 111.446 72.26 104.53L38.69 58.34H38.74Z" fill="#0872ED"/>
<path d="M59 38.57C62.2182 33.7681 64.8565 28.6022 66.86 23.18L120.23 40.52C116.371 51.518 111.046 61.9454 104.4 71.52L59 38.57Z" fill="white"/>
<path d="M67.18 23.8L119.61 40.8C115.839 51.4276 110.688 61.5139 104.29 70.8L59.71 38.45C62.7322 33.8569 65.2375 28.9437 67.18 23.8ZM66.58 22.55C64.5136 28.251 61.7456 33.6727 58.34 38.69L104.53 72.26C111.445 62.3848 116.952 51.5945 120.89 40.2L66.58 22.55Z" fill="#0872ED"/>
<path d="M43.34 55.56C47.8721 51.9729 51.9728 47.8722 55.56 43.34L100.95 76.34C93.8762 85.6214 85.5927 93.9149 76.32 101L43.34 55.56Z" fill="white"/>
<path d="M55.65 44L100.24 76.4C93.3661 85.339 85.359 93.3461 76.42 100.22L44 55.65C48.2981 52.2048 52.2049 48.2981 55.65 44ZM55.46 42.63C51.732 47.4156 47.4298 51.7246 42.65 55.46L76.21 101.66C85.823 94.387 94.3871 85.823 101.66 76.21L55.46 42.65V42.63Z" fill="#0872ED"/>
<path d="M68.7 17.57C70.2599 12.0048 71.1594 6.27544 71.38 0.5H127.49C127.24 12.1649 125.416 23.7427 122.07 34.92L68.7 17.57Z" fill="white"/>
<path d="M127 1C126.708 12.274 124.947 23.4618 121.76 34.28L69.33 17.28C70.7712 11.9633 71.6196 6.50337 71.86 1H127ZM128 0H70.9C70.7064 6.05984 69.7625 12.0723 68.09 17.9L122.4 35.55C125.901 24.0157 127.785 12.0519 128 0Z" fill="#0872ED"/>
<path d="M68.83 61.54H70.07V64.42H76.55V72.34H70.07V77.25H68.83V72.34H62.36V64.42H68.83V61.54ZM63.6 71.21H68.83V65.54H63.6V71.21ZM75.31 65.54H70.07V71.21H75.31V65.54Z" fill="#0872ED"/>
<path d="M66.3 34C67.95 33.59 68.19 33.54 69.84 33.08C69.46 31.5 69.4 31.26 68.94 29.68L70.4 29.29L71.15 32.74C72.91 32.3 73.27 32.23 75.45 31.79C74.9653 30.8538 74.4069 29.9577 73.78 29.11L75.07 28.53C75.8004 29.4806 76.4273 30.5064 76.94 31.59C77.23 31.59 77.45 31.59 77.62 31.59C80.16 31.59 81.62 32.92 81.62 35.14C81.62 37.36 80 38.93 77.45 38.93C76.1058 38.9184 74.7947 38.5115 73.68 37.76L73.59 36.06C75.36 37.18 76.35 37.57 77.44 37.57C77.7943 37.5992 78.1508 37.5543 78.4867 37.4381C78.8226 37.3219 79.1307 37.1371 79.3913 36.8953C79.6519 36.6536 79.8592 36.3602 80.0002 36.0339C80.1412 35.7076 80.2126 35.3555 80.21 35C80.21 33.62 79.21 32.79 77.45 32.79C76.26 32.79 74.92 33.08 71.45 34.07C72.45 38.94 72.63 40.07 73.12 43.23L71.62 43.53C71.266 40.4659 70.7553 37.4219 70.09 34.41C68.65 34.83 68.38 34.92 66.69 35.49L66.3 34Z" fill="#0872ED"/>
<path d="M81.24 41.76C82.89 41.35 83.13 41.3 84.78 40.84C84.41 39.26 84.34 39.02 83.88 37.44L85.34 37.05L86.09 40.5C87.86 40.06 88.21 39.99 90.39 39.5C89.9129 38.5595 89.3541 37.6627 88.72 36.82L90.02 36.24C90.7431 37.1956 91.3695 38.2206 91.89 39.3C92.17 39.3 92.4 39.3 92.57 39.3C95.1 39.3 96.57 40.63 96.57 42.85C96.57 45.07 95 46.67 92.4 46.67C91.0524 46.6597 89.7377 46.2528 88.62 45.5L88.54 43.8C90.3 44.92 91.29 45.31 92.38 45.31C92.7309 45.3389 93.084 45.2951 93.4172 45.1813C93.7504 45.0676 94.0566 44.8863 94.3165 44.6488C94.5765 44.4114 94.7847 44.1229 94.9281 43.8013C95.0715 43.4798 95.1471 43.1321 95.15 42.78C95.15 41.4 94.15 40.57 92.4 40.57C91.21 40.57 89.86 40.86 86.4 41.85C87.4 46.72 87.57 47.8 88.06 51.01L86.57 51.31C86.2025 48.2452 85.6785 45.2012 85 42.19C83.56 42.61 83.29 42.7 81.61 43.27L81.24 41.76Z" fill="#0872ED"/>
<path d="M98.7501 19.11H106.28V20.3H90.6801V19.11H97.4401V5.10999H98.7501V10.11H105.16V11.3H98.7501V19.11Z" fill="#0872ED"/>
<path d="M102.3 56.83H109.83V58H94.23V56.83H101V42.83H102.31V47.83H108.72V49.02H102.3V56.83Z" fill="#0872ED"/>
<path d="M27.14 71.11C28.79 70.7 29.03 70.65 30.68 70.19C30.3 68.61 30.24 68.37 29.78 66.79L31.24 66.4L32 69.85C33.76 69.41 34.12 69.34 36.3 68.9C35.816 67.9602 35.2575 67.0607 34.63 66.21L35.92 65.63C36.646 66.5836 37.2726 67.6089 37.79 68.69H38.47C41 68.69 42.47 70.01 42.47 72.24C42.47 74.47 40.86 76 38.29 76C36.9463 75.9849 35.6362 75.5783 34.52 74.83L34.43 73.13C36.2 74.25 37.19 74.64 38.28 74.64C38.6309 74.6689 38.984 74.6251 39.3172 74.5113C39.6504 74.3976 39.9566 74.2163 40.2166 73.9789C40.4765 73.7414 40.6847 73.4529 40.8281 73.1313C40.9715 72.8098 41.0471 72.4621 41.05 72.11C41.05 70.73 40.05 69.9 38.29 69.9C37.1 69.9 35.76 70.19 32.29 71.17C33.29 76.05 33.46 77.17 33.96 80.34L32.46 80.64C32.106 77.5726 31.5953 74.5253 30.93 71.51C29.49 71.94 29.21 72.02 27.53 72.6L27.14 71.11Z" fill="#0872ED"/>
<path d="M35.75 86.38C37.4 85.97 37.63 85.92 39.28 85.46C38.91 83.88 38.84 83.64 38.38 82.06L39.84 81.67L40.59 85.12C42.36 84.68 42.72 84.61 44.89 84.12C44.4143 83.1777 43.8589 82.2777 43.23 81.43L44.52 80.85C45.2513 81.832 45.8781 82.8877 46.39 84H47.07C49.6 84 51.07 85.32 51.07 87.55C51.07 89.78 49.46 91.34 46.89 91.34C45.5437 91.3216 44.2313 90.9154 43.11 90.17L43 88.42C44.77 89.54 45.75 89.93 46.84 89.93C47.1912 89.9604 47.5449 89.9177 47.8788 89.8045C48.2127 89.6913 48.5194 89.5101 48.7797 89.2723C49.04 89.0346 49.2482 88.7454 49.3911 88.4232C49.534 88.1009 49.6086 87.7525 49.61 87.4C49.61 86.02 48.61 85.19 46.86 85.19C45.67 85.19 44.33 85.48 40.86 86.46C41.86 91.34 42.03 92.46 42.52 95.62L41.03 95.93C40.6 92.43 40.28 90.54 39.5 86.8C38.05 87.23 37.78 87.31 36.1 87.89L35.75 86.38Z" fill="#0872ED"/>
<path d="M12.7899 96.23C15.1616 97.3108 17.4166 98.631 19.5199 100.17L18.7699 101.31C16.9106 99.8647 14.8986 98.6274 12.7699 97.62V107.42H11.4799V93.78H5.06995V92.54H20.5799V93.78H12.7899V96.23Z" fill="#0872ED"/>
<path d="M51.62 101.93C53.994 103.016 56.2521 104.34 58.36 105.88L57.61 107C55.7542 105.55 53.7416 104.312 51.61 103.31V113.1H50.31V99.49H43.91V98.25H59.41V99.49H51.62V101.93Z" fill="#0872ED"/>
<path d="M83.91 99.56H88.76L89.44 97.66L90.73 97.81L90.08 99.56H97.15V113.11H83.91V99.56ZM85.15 100.7V103.7H95.91V100.7H85.15ZM85.15 104.78V107.84H95.91V104.78H85.15ZM85.15 108.91V112H95.91V108.94L85.15 108.91Z" fill="#0872ED"/>
<path d="M107.64 112.14C104.64 112.6 102.87 112.84 99.7 113.14L99.53 111.93C101.37 111.78 101.66 111.75 103.61 111.54V110.15H100.42V109.08H103.61V108.08H100.23V102.74H103.61V101.74H99.67V100.6H103.61V99.5401C102.594 99.7008 101.568 99.791 100.54 99.8101L100.03 98.8101C102.449 98.7338 104.853 98.3986 107.2 97.8101L107.98 98.6901C106.939 98.9907 105.876 99.208 104.8 99.3401V100.56H108.34V101.7H104.8V102.7H108.17V108.04H104.8V109.04H108V110.11H104.8V111.35C106.04 111.2 106.27 111.16 107.8 110.93L107.64 112.14ZM101.42 104.88H103.61V103.74H101.42V104.88ZM101.42 107.04H103.61V105.9H101.42V107.04ZM104.8 104.88H107V103.74H104.8V104.88ZM104.8 107.04H107V105.9H104.8V107.04ZM108.68 102.79V101.67H110.38V97.8301H111.62V101.67H114.78V105.53C114.7 112.63 114.37 113.53 111.86 113.46H110.75L110.4 112.24H111.64H111.72C112.075 112.27 112.429 112.174 112.72 111.97C113.25 111.46 113.5 109.3 113.5 105.41V102.76H111.6C111.47 108 110.6 111.16 108.49 113.42L107.42 112.67C109.42 110.43 110.18 107.86 110.35 102.76L108.68 102.79Z" fill="#0872ED"/>
<path d="M116.5 142.5H11.5V181.5H116.5V142.5Z" fill="white"/>
<path d="M116 143V181H12V143H116ZM117 142H11V182H117V142Z" fill="#0872ED"/>
<path d="M116.5 191.5H11.5V230.5H116.5V191.5Z" fill="#0872ED"/>
<path d="M116 192V230H12V192H116ZM117 191H11V231H117V191Z" fill="#0872ED"/>
<path d="M45.32 156.17H55.8V157.17C55.1887 159.147 54.2963 161.027 53.15 162.75C54.9955 164.565 56.7382 166.481 58.37 168.49L57.3 169.75C55.7628 167.704 54.0676 165.781 52.23 164C50.1772 166.414 47.5199 168.24 44.53 169.29L43.67 168C46.1309 167.227 48.3695 165.872 50.197 164.052C52.0245 162.231 53.3872 159.998 54.17 157.54H45.32V156.17Z" fill="#0872ED"/>
<path d="M68.08 169.52V160.81C66.0371 161.972 63.8994 162.959 61.69 163.76L60.9 162.43C65.5365 161.143 69.7032 158.546 72.9 154.95L74.11 156.09C72.7227 157.497 71.2022 158.766 69.57 159.88V169.52H68.08Z" fill="#0872ED"/>
<path d="M78.53 167.48C85.59 166.7 89.09 163.96 91.44 157.48L92.8 158.37C90.35 165 86.35 168.05 79 169L78.53 167.48ZM79.77 156.33C81.305 157.302 82.7241 158.446 84 159.74L83 161C81.7809 159.693 80.4114 158.535 78.92 157.55L79.77 156.33Z" fill="#0872ED"/>
<path d="M106.06 156.63L107.36 158.2C106.36 164.93 102.59 168.8 95.94 169.79L95.26 168.43C99.1 167.8 100.97 166.92 102.96 164.79C104.608 162.869 105.652 160.503 105.96 157.99H98.59C97.8376 159.848 96.6952 161.522 95.24 162.9L94.12 162C95.7039 160.513 96.9018 158.663 97.61 156.61L106.06 156.63ZM106.58 153.98C107.316 154.794 107.957 155.69 108.49 156.65L107.67 157.16C107.145 156.188 106.508 155.282 105.77 154.46L106.58 153.98ZM108.91 153.98C109.583 154.75 110.148 155.608 110.59 156.53L109.78 157.02C109.295 156.102 108.726 155.232 108.08 154.42L108.91 153.98Z" fill="#0872ED"/>
<path d="M48.5 204.29H53.34L54.02 202.39L55.32 202.54L54.67 204.29H61.74V217.84H48.5V204.29ZM49.74 205.43V208.43H60.5V205.43H49.74ZM49.74 209.51V212.57H60.5V209.51H49.74ZM49.74 213.64V216.7H60.5V213.64H49.74Z" fill="white"/>
<path d="M72.23 216.87C69.23 217.33 67.45 217.57 64.29 217.87L64.12 216.67C65.96 216.51 66.25 216.48 68.2 216.28V214.88H65V213.81H68.2V212.81H64.82V207.47H68.2V206.52H64.26V205.38H68.2V204.3C67.1835 204.456 66.1581 204.546 65.13 204.57L64.62 203.57C67.037 203.509 69.4406 203.191 71.79 202.62L72.57 203.5C71.5289 203.801 70.4655 204.018 69.39 204.15V205.37H72.93V206.51H69.39V207.46H72.76V212.8H69.39V213.8H72.57V214.87H69.39V216.11C70.63 215.96 70.85 215.93 72.39 215.69L72.23 216.87ZM66 209.61H68.2V208.47H66V209.61ZM66 211.77H68.2V210.63H66V211.77ZM69.38 209.61H71.56V208.47H69.39L69.38 209.61ZM69.38 211.77H71.56V210.63H69.39L69.38 211.77ZM73.26 207.52V206.4H75V202.56H76.24V206.4H79.4V210.26C79.32 217.36 78.99 218.26 76.48 218.2H75.34L75 217H76.25H76.33C76.6847 217.03 77.0386 216.934 77.33 216.73C77.86 216.22 78.11 214.06 78.11 210.16V207.51H76.19C76.06 212.75 75.19 215.91 73.08 218.17L72 217.43C74 215.19 74.75 212.62 74.92 207.52H73.26Z" fill="white"/>
<path d="M39 157.37L37.54 152.74C37.4971 152.6 37.4238 152.47 37.3253 152.361C37.2268 152.253 37.1055 152.167 36.97 152.11C36.8371 152.048 36.6919 152.015 36.545 152.015C36.3981 152.015 36.253 152.048 36.12 152.11L31.58 154.48C31.3518 154.607 31.1822 154.818 31.1075 155.068C31.0329 155.318 31.0591 155.588 31.1806 155.819C31.302 156.05 31.5091 156.225 31.7576 156.305C32.006 156.386 32.2761 156.366 32.51 156.25L34.61 155.15C32.4 160.23 28.88 165.21 20.7 168.67L21.77 166.14C21.8733 165.896 21.8754 165.621 21.7761 165.375C21.6767 165.13 21.4839 164.934 21.24 164.83C20.996 164.727 20.721 164.725 20.4754 164.824C20.2298 164.923 20.0336 165.116 19.93 165.36L17.82 170.3C17.7606 170.43 17.7299 170.572 17.7299 170.715C17.7299 170.858 17.7606 171 17.82 171.13C17.8814 171.258 17.9693 171.371 18.078 171.463C18.1866 171.554 18.3134 171.621 18.45 171.66L23.38 173H23.64C23.7714 173.017 23.9048 173.008 24.0326 172.974C24.1605 172.939 24.2803 172.88 24.3852 172.799C24.4901 172.718 24.5781 172.618 24.6442 172.503C24.7102 172.388 24.753 172.261 24.77 172.13C24.7871 171.999 24.7781 171.865 24.7437 171.737C24.7092 171.61 24.6499 171.49 24.5691 171.385C24.4883 171.28 24.3876 171.192 24.2728 171.126C24.158 171.06 24.0314 171.017 23.9 171L21.67 170.4C30.38 166.67 34.13 161.33 36.49 155.89L37.12 157.89C37.186 158.101 37.3199 158.284 37.5008 158.41C37.6817 158.537 37.8995 158.6 38.12 158.59C38.2195 158.605 38.3206 158.605 38.42 158.59C38.6517 158.496 38.8398 158.319 38.9472 158.093C39.0545 157.867 39.0734 157.609 39 157.37Z" fill="#0872ED"/>
</g>
<defs>
<clipPath id="clip0_35_295">
<rect width="128" height="240" fill="white"/>
</clipPath>
</defs>
</svg>
