<svg width="375" height="667" viewBox="0 0 375 667" fill="none" xmlns="http://www.w3.org/2000/svg">
<rect width="375" height="667" fill="black" fill-opacity="0.2"/>
<rect width="340" height="667" fill="#F9F9F9"/>
<rect width="340" height="57" fill="#F9F9F9"/>
<path d="M321.786 26.3203C322.251 25.8555 323.052 25.9019 323.575 26.4248C324.061 26.9104 324.135 27.6361 323.771 28.1094L323.68 28.2139L317.894 34L323.68 39.7861L323.771 39.8906C324.135 40.3639 324.061 41.0896 323.575 41.5752C323.052 42.0981 322.251 42.1445 321.786 41.6797L316 35.8936L310.214 41.6797C309.749 42.1445 308.948 42.0981 308.425 41.5752C307.939 41.0896 307.865 40.3639 308.229 39.8906L308.32 39.7861L314.106 34L308.32 28.2139L308.229 28.1094C307.865 27.6361 307.939 26.9104 308.425 26.4248C308.948 25.9019 309.749 25.8555 310.214 26.3203L316 32.1064L321.786 26.3203Z" fill="black"/>
<rect width="340" height="47" transform="translate(0 57)" fill="#F9F9F9"/>
<path d="M44.959 75.749V83.28H49.515C50.535 83.28 50.892 83.263 51.504 83.178V84.504C50.926 84.436 50.433 84.419 49.532 84.419H39.434C38.55 84.419 38.057 84.436 37.479 84.504V83.178C38.091 83.263 38.448 83.28 39.451 83.28H43.701V75.749H40.743C39.825 75.749 39.349 75.766 38.771 75.834V74.525C39.366 74.61 39.774 74.627 40.76 74.627H48.223C49.209 74.627 49.617 74.61 50.212 74.525V75.834C49.634 75.766 49.158 75.749 48.24 75.749H44.959ZM67.824 73.454L68.504 74.27C68.334 74.491 68.3 74.542 68.096 74.95C66.923 77.228 65.342 78.775 63.132 79.795C62.877 79.37 62.741 79.217 62.299 78.826C63.489 78.367 64.186 77.959 64.985 77.211C65.767 76.48 66.396 75.647 66.889 74.678H57.233C56.298 74.678 55.856 74.695 55.227 74.763V73.454C55.805 73.539 56.281 73.573 57.25 73.573H66.379C67.518 73.573 67.518 73.573 67.824 73.454ZM60.412 76.412H61.789C61.738 76.718 61.738 76.718 61.721 77.602C61.67 80.441 61.194 82.124 60.038 83.586C59.001 84.895 57.743 85.745 55.686 86.527C55.431 85.983 55.312 85.813 54.904 85.388C56.281 84.98 57.131 84.555 58.015 83.824C59.817 82.379 60.48 80.645 60.48 77.33C60.48 76.854 60.463 76.735 60.412 76.412ZM82.733 84.776H74.607C73.23 84.793 73.23 84.793 72.788 84.844V83.501C73.349 83.603 73.587 83.62 74.641 83.62H82.733V75.409H74.998C73.978 75.409 73.621 75.426 73.043 75.494V74.134C73.638 74.236 73.893 74.253 74.998 74.253H83.158C83.379 74.253 83.617 74.236 84.042 74.219C84.008 74.644 84.008 74.933 84.008 75.545V84.249C84.008 84.878 84.042 85.49 84.093 85.796H82.733V84.776ZM89.652 74.899L90.485 73.981C92.304 75.137 93.358 75.97 94.582 77.177L93.698 78.231C92.474 76.905 91.131 75.8 89.652 74.899ZM89.771 85.949L89.397 84.521C90.723 84.47 92.763 83.943 94.344 83.212C97.625 81.75 99.903 79.251 101.28 75.647C101.671 76.174 101.841 76.327 102.317 76.65C100.957 79.608 99.376 81.597 97.132 83.144C95.381 84.334 93.63 85.031 90.791 85.677C90.332 85.779 90.196 85.813 89.771 85.949ZM112.398 82.124H112.245C111.769 82.583 111.021 83.144 110.341 83.535V85.762C111.99 85.456 112.585 85.32 114.081 84.929V85.847C111.888 86.408 110.953 86.612 108.012 87.105C107.689 87.156 107.502 87.19 107.111 87.275L106.856 86.221C107.4 86.221 107.927 86.17 109.304 85.949V84.096C108.216 84.657 107.077 85.048 105.326 85.49C105.173 85.099 105.054 84.912 104.765 84.589C107.383 84.113 109.389 83.314 110.97 82.124H106.737C105.802 82.124 105.36 82.141 104.901 82.209V81.155C105.445 81.223 105.955 81.24 106.754 81.24H112.143V80.934C112.143 80.662 112.126 80.373 112.092 80.152H113.231C113.197 80.39 113.163 80.679 113.163 80.934V81.24H118.246C119.045 81.24 119.606 81.223 120.082 81.155V82.209C119.623 82.141 119.198 82.124 118.263 82.124H113.418C113.86 82.906 114.285 83.399 115.186 84.045C116.206 83.484 116.903 82.957 117.43 82.362L118.331 82.957C117.345 83.756 116.92 84.045 115.951 84.555C117.209 85.252 118.569 85.779 120.235 86.17C119.963 86.493 119.844 86.663 119.623 87.156C117.277 86.408 115.713 85.66 114.455 84.64C113.435 83.824 112.942 83.195 112.398 82.124ZM108.879 73.964H106.669C106.38 74.372 106.278 74.508 105.887 74.933C105.581 74.678 105.445 74.593 105.071 74.423C105.887 73.624 106.261 73.029 106.635 71.958L107.57 72.247C107.366 72.706 107.298 72.859 107.145 73.165H108.879C108.879 72.519 108.862 72.264 108.794 71.856H109.916C109.848 72.23 109.831 72.485 109.831 73.165H111.735C112.449 73.165 112.772 73.148 113.197 73.08V74.032C112.772 73.981 112.381 73.964 111.735 73.964H109.831V75.086H111.956C112.738 75.086 113.044 75.069 113.469 75.001V75.953C113.044 75.902 112.619 75.885 111.99 75.885H109.831V76.939H111.463C112.245 76.939 112.585 76.922 112.891 76.888C112.857 77.177 112.84 77.398 112.84 77.755V79.098C112.84 79.829 112.551 80.05 111.633 80.05C111.429 80.05 111.021 80.033 110.63 79.999C110.613 79.727 110.562 79.506 110.46 79.217C110.885 79.302 111.327 79.353 111.582 79.353C111.888 79.353 111.973 79.268 111.973 78.996V77.704H109.831V79.234C109.831 79.761 109.848 80.169 109.899 80.543H108.811C108.862 80.135 108.879 79.778 108.879 79.251V77.704H106.89V79.149C106.89 79.676 106.907 79.931 106.958 80.22H105.887C105.938 79.829 105.955 79.574 105.955 79.115V77.942C105.955 77.551 105.938 77.211 105.904 76.888C106.227 76.922 106.72 76.939 107.213 76.939H108.879V75.885H106.669C106.125 75.885 105.717 75.919 105.258 75.987V75.018C105.649 75.069 106.023 75.086 106.567 75.086H108.879V73.964ZM115.509 78.197H114.319C114.387 77.823 114.404 77.449 114.404 77.024V73.998C114.404 73.505 114.387 73.165 114.319 72.791H115.509C115.441 73.097 115.424 73.42 115.424 73.998V77.024C115.424 77.5 115.441 77.772 115.509 78.197ZM118.926 73.573V78.928C118.926 79.897 118.552 80.186 117.311 80.186C116.988 80.186 116.155 80.135 115.594 80.101C115.543 79.676 115.458 79.336 115.339 79.064C116.087 79.2 116.75 79.268 117.192 79.268C117.838 79.268 117.889 79.234 117.889 78.775V73.539C117.889 72.91 117.855 72.519 117.787 72.06H119.028C118.943 72.519 118.926 72.893 118.926 73.573ZM124.876 76.684V73.811C124.876 73.233 124.859 72.825 124.808 72.383C125.335 72.451 125.811 72.468 126.712 72.468H132.271C133.257 72.468 133.733 72.451 134.192 72.383C134.141 72.825 134.124 73.182 134.124 73.794V76.667C134.124 77.313 134.141 77.755 134.192 78.163C133.716 78.112 133.24 78.095 132.407 78.095H126.61C125.794 78.095 125.267 78.112 124.808 78.163C124.859 77.704 124.876 77.262 124.876 76.684ZM125.947 73.437V77.126H133.036V73.437H125.947ZM122.428 85.541V81.427C122.428 80.764 122.411 80.288 122.36 79.778C122.853 79.829 123.261 79.846 123.924 79.846H127.137C127.681 79.846 128.072 79.829 128.514 79.795C128.48 80.152 128.463 80.441 128.463 81.393V85.32C128.463 86.153 128.48 86.578 128.531 86.986H127.426V86.238H123.482V87.309H122.343C122.411 86.867 122.428 86.408 122.428 85.541ZM123.482 80.798V85.286H127.426V80.798H123.482ZM130.146 85.643V81.257C130.146 80.458 130.146 80.203 130.095 79.795C130.52 79.829 130.894 79.846 131.472 79.846H135.212C135.858 79.846 136.266 79.829 136.674 79.778C136.623 80.22 136.606 80.73 136.606 81.444V85.541C136.606 86.459 136.623 86.884 136.691 87.309H135.535V86.238H131.183V87.309H130.078C130.129 86.867 130.146 86.425 130.146 85.643ZM131.183 80.798V85.286H135.552V80.798H131.183ZM147.928 74.015H145.378C144.613 74.015 144.222 74.032 143.78 74.1V73.046C144.222 73.131 144.596 73.148 145.395 73.148H147.928C147.928 72.485 147.911 72.264 147.826 71.822H149.033C148.948 72.264 148.931 72.468 148.931 73.148H152.076C152.926 73.148 153.283 73.131 153.742 73.046V74.1C153.283 74.032 152.858 74.015 152.093 74.015H148.931V75.171H151.583C152.314 75.171 152.705 75.154 153.147 75.086V76.089C152.688 76.021 152.263 76.004 151.566 76.004H148.931V77.262H152.365C153.13 77.262 153.623 77.228 154.048 77.16V78.248C153.504 78.18 152.977 78.146 152.365 78.146H145.14C144.341 78.146 143.848 78.18 143.406 78.248V77.16C143.831 77.228 144.307 77.262 145.14 77.262H147.928V76.004H145.888C145.208 76.004 144.834 76.021 144.341 76.089V75.086C144.783 75.154 145.191 75.171 145.905 75.171H147.928V74.015ZM145.497 84.351V85.405C145.497 86.289 145.531 86.816 145.599 87.241H144.375C144.443 86.799 144.46 86.323 144.46 85.405V80.611C144.46 79.829 144.46 79.591 144.409 79.132C144.834 79.183 145.344 79.2 145.99 79.2H151.209C152.008 79.2 152.433 79.183 152.773 79.115C152.722 79.523 152.705 80.05 152.705 80.934V85.762C152.705 86.816 152.382 87.088 151.107 87.088C150.648 87.088 150.104 87.054 149.373 87.003C149.322 86.561 149.254 86.306 149.101 85.932C149.883 86.068 150.529 86.136 151.005 86.136C151.566 86.136 151.668 86.068 151.668 85.677V84.351H145.497ZM145.497 83.484H151.668V82.209H145.497V83.484ZM145.497 81.359H151.668V80.067H145.497V81.359ZM139.513 80.016L138.595 79.591C139.105 77.993 139.207 77.398 139.309 75.086L140.244 75.341C140.125 77.517 140.006 78.282 139.513 80.016ZM142.114 87.275H140.805C140.89 86.731 140.924 86.017 140.924 85.32V73.539C140.924 72.893 140.89 72.4 140.805 71.822H142.114C142.029 72.366 141.995 72.876 141.995 73.539V85.337C141.995 86.068 142.029 86.697 142.114 87.275ZM143.848 76.718L143.015 77.109C142.811 76.174 142.607 75.596 142.233 74.797L142.998 74.474C143.321 75.171 143.542 75.766 143.848 76.718ZM165.455 78.86H164.928V85.558C164.928 86.204 164.962 86.646 165.047 87.258H163.806C163.891 86.629 163.925 86.238 163.925 85.558V74.134C163.925 73.539 163.891 73.012 163.84 72.536C164.299 72.604 164.775 72.621 165.438 72.621H169.365C170.062 72.621 170.504 72.604 170.793 72.553C170.759 72.842 170.759 72.842 170.674 73.76C170.555 75.001 170.385 75.817 170.164 76.174C169.909 76.548 169.552 76.667 168.685 76.667C168.175 76.667 167.699 76.633 167.019 76.548C166.968 76.123 166.917 75.919 166.798 75.528C167.546 75.681 168.26 75.766 168.753 75.766C169.399 75.766 169.484 75.545 169.637 73.59H164.928V77.925H168.617C169.331 77.925 169.705 77.908 169.977 77.857L170.589 78.486C170.504 78.69 170.487 78.792 170.385 79.183C170.011 80.798 169.399 82.413 168.668 83.688C169.569 84.742 170.232 85.32 171.524 86.153C171.201 86.476 171.031 86.731 170.827 87.105C169.705 86.289 169.025 85.66 168.107 84.589C167.427 85.575 166.815 86.255 165.863 87.088C165.625 86.748 165.438 86.544 165.098 86.238C166.118 85.439 166.832 84.691 167.461 83.756C166.577 82.515 166.033 81.172 165.455 78.86ZM169.399 78.86H166.407C166.985 81.019 167.24 81.682 168.022 82.838C168.634 81.665 169.025 80.577 169.399 78.86ZM160.355 76.48H162.123C162.803 76.48 163.058 76.463 163.466 76.395V77.5C163.058 77.449 162.769 77.432 162.123 77.432H157.329C156.7 77.432 156.394 77.449 155.969 77.5V76.395C156.377 76.463 156.683 76.48 157.329 76.48H159.352V74.746H157.754C157.193 74.746 156.87 74.763 156.479 74.814V73.743C156.836 73.794 157.125 73.811 157.754 73.811H159.352V73.301C159.352 72.757 159.318 72.264 159.25 71.839H160.457C160.389 72.366 160.355 72.74 160.355 73.301V73.811H161.715C162.327 73.811 162.616 73.794 162.973 73.743V74.814C162.565 74.763 162.276 74.746 161.715 74.746H160.355V76.48ZM161.409 80.288H162.123C162.82 80.288 163.109 80.271 163.466 80.203V81.308C163.092 81.257 162.718 81.24 162.123 81.24H160.355V82.957H161.919C162.514 82.957 162.803 82.94 163.177 82.889V83.977C162.752 83.926 162.48 83.909 161.919 83.909H160.355V85.643C160.355 86.238 160.389 86.68 160.457 87.258H159.233C159.318 86.663 159.352 86.238 159.352 85.643V83.909H157.618C157.04 83.909 156.751 83.926 156.343 83.977V82.889C156.717 82.94 157.006 82.957 157.618 82.957H159.352V81.24H157.329C156.734 81.24 156.394 81.257 155.969 81.308V80.203C156.377 80.271 156.649 80.288 157.329 80.288H160.457C160.984 79.166 161.154 78.656 161.375 77.619L162.31 77.891C162.021 78.877 161.783 79.506 161.409 80.288ZM158.876 79.795L157.992 80.101C157.839 79.302 157.635 78.605 157.346 77.874L158.196 77.602C158.536 78.486 158.655 78.86 158.876 79.795Z" fill="black"/>
<rect width="340" height="47" transform="translate(0 104)" fill="#F9F9F9"/>
<path d="M46.098 125.571V125.503C46.098 125.384 46.115 125.129 46.149 124.398C45.826 125.027 45.673 125.248 44.874 126.302C43.99 127.475 42.494 128.869 40.845 130.059C40.08 130.62 39.417 131.028 38.04 131.81C37.768 131.317 37.632 131.147 37.19 130.79C39.247 129.872 41.168 128.512 42.953 126.727C43.905 125.775 44.84 124.602 45.401 123.633L39.825 123.667C38.754 123.667 38.516 123.667 37.938 123.735V122.46C38.55 122.562 38.856 122.579 39.859 122.579L46.047 122.545L46.03 120.879C46.013 119.995 46.013 119.995 45.945 119.502H47.305C47.254 119.876 47.237 120.148 47.237 120.437V120.845L47.271 122.545H49.515C50.467 122.545 50.671 122.528 51.215 122.443V123.684C50.858 123.65 50.501 123.633 49.804 123.633C49.736 123.633 49.634 123.633 49.549 123.633H47.271L47.39 131.912C47.39 132.643 47.424 133.187 47.475 133.646H46.098C46.149 133.153 46.166 132.966 46.166 132.303C46.166 132.116 46.166 132.031 46.166 131.929L46.098 125.673V125.571ZM65.631 121.117H65.869C65.852 120.981 65.835 120.896 65.835 120.794C65.835 119.842 66.617 119.06 67.586 119.06C68.555 119.06 69.337 119.842 69.337 120.811C69.337 121.78 68.555 122.562 67.586 122.562C67.467 122.562 67.365 122.545 67.212 122.511C66.617 124.721 65.818 126.574 64.849 127.951C63.846 129.396 62.333 130.807 60.667 131.844C59.698 132.456 58.933 132.83 57.539 133.357C57.284 132.813 57.148 132.626 56.706 132.184C58.236 131.725 59.239 131.249 60.548 130.382C63.336 128.512 64.951 126.081 65.903 122.273H57.25C56.383 122.273 55.907 122.29 55.346 122.375V121.015C55.992 121.1 56.332 121.117 57.267 121.117H65.631ZM67.586 119.774C67.008 119.774 66.549 120.233 66.549 120.811C66.549 121.372 67.025 121.848 67.586 121.848C68.164 121.848 68.623 121.389 68.623 120.811C68.623 120.233 68.164 119.774 67.586 119.774ZM73.791 120.964L74.454 119.927C76.12 120.607 77.225 121.168 78.67 122.069L77.973 123.208C76.8 122.341 75.032 121.389 73.791 120.964ZM72.448 125.027L73.128 123.99C74.743 124.653 75.967 125.282 77.446 126.217L76.783 127.356C75.542 126.455 73.995 125.605 72.448 125.027ZM73.026 133.17L72.686 131.759C73.791 131.759 75.559 131.351 77.259 130.705C79.367 129.906 80.982 128.699 82.359 126.914C83.311 125.673 83.872 124.602 84.399 123.106C84.824 123.548 84.994 123.701 85.453 124.007C83.974 127.543 81.9 129.855 78.908 131.334C77.718 131.929 76.001 132.507 74.607 132.796C74.335 132.847 74.029 132.915 73.689 132.983C73.349 133.051 73.281 133.085 73.026 133.17ZM98.662 133.068H92.134C91.216 133.068 91.08 133.068 90.655 133.136V131.946C91.063 132.014 91.505 132.048 92.134 132.048H98.662V128.852H92.678C91.777 128.852 91.641 128.852 91.216 128.92V127.764C91.624 127.832 92.032 127.866 92.695 127.866H98.662V124.908H92.304C91.403 124.908 91.25 124.908 90.825 124.976V123.803C91.233 123.871 91.641 123.905 92.304 123.905H98.628C99.172 123.905 99.478 123.888 99.784 123.871C99.767 124.313 99.767 124.585 99.767 125.18V132.864C99.767 133.408 99.784 133.629 99.835 133.918H98.662V133.068ZM106.652 121.899L107.485 120.981C109.304 122.137 110.358 122.97 111.582 124.177L110.698 125.231C109.474 123.905 108.131 122.8 106.652 121.899ZM106.771 132.949L106.397 131.521C107.723 131.47 109.763 130.943 111.344 130.212C114.625 128.75 116.903 126.251 118.28 122.647C118.671 123.174 118.841 123.327 119.317 123.65C117.957 126.608 116.376 128.597 114.132 130.144C112.381 131.334 110.63 132.031 107.791 132.677C107.332 132.779 107.196 132.813 106.771 132.949ZM131.506 128.41H128.616C128.582 128.852 128.582 128.886 128.548 129.226C129.109 129.957 129.738 130.467 130.758 131.045C130.554 131.266 130.469 131.385 130.197 131.861C129.364 131.317 128.888 130.892 128.344 130.246C127.902 131.929 127.239 133.017 126.015 134.088C125.726 133.731 125.59 133.595 125.199 133.357C126.763 132.269 127.477 130.841 127.647 128.41H127.46C126.831 128.41 126.389 128.427 125.93 128.495V127.424C126.406 127.492 126.729 127.509 127.46 127.509H131.336C131.183 126.727 131.132 126.251 131.047 125.384C130.86 123.599 130.826 123.021 130.792 120.063C130.792 119.621 130.758 119.349 130.707 118.992H131.897C131.829 119.4 131.812 119.706 131.812 120.658C131.812 123.208 131.965 125.503 132.288 127.509H135.297C136.317 127.509 136.623 127.492 137.099 127.407V128.512C136.555 128.427 136.113 128.41 135.297 128.41H132.458C132.679 129.345 132.9 129.957 133.308 130.688C134.124 129.957 134.617 129.379 134.889 128.784L135.756 129.379C134.94 130.331 134.413 130.892 133.784 131.453C134.515 132.49 135.212 133.102 135.654 133.102C135.858 133.102 135.96 132.966 136.113 132.524C136.249 132.116 136.266 131.98 136.419 130.807C136.742 131.096 136.946 131.232 137.286 131.402C136.895 133.544 136.555 134.173 135.756 134.173C134.923 134.173 134.005 133.459 133.036 132.065C131.761 133.034 130.503 133.663 128.82 134.207C128.599 133.799 128.497 133.663 128.14 133.34C129.942 132.864 131.166 132.303 132.543 131.283C132.033 130.331 131.812 129.736 131.506 128.41ZM132.475 125.996L132.288 125.061C132.407 125.078 132.475 125.078 132.543 125.078C132.594 125.078 132.645 125.078 132.713 125.061C133.291 124.398 133.427 124.228 133.971 123.531C133.291 122.613 132.883 122.188 132.016 121.474L132.577 120.76C132.849 121.015 132.917 121.083 133.104 121.27C133.682 120.471 134.005 119.876 134.345 119.026L135.229 119.502C134.634 120.522 134.328 120.998 133.682 121.848C134.022 122.222 134.175 122.409 134.498 122.817C135.178 121.865 135.348 121.593 135.807 120.777L136.589 121.389C135.042 123.463 134.566 124.075 133.733 125.01C134.668 124.942 135.11 124.891 135.807 124.772C135.62 124.347 135.552 124.228 135.297 123.82L135.994 123.548C136.47 124.33 136.81 125.044 137.235 126.166L136.453 126.472C136.3 125.962 136.232 125.775 136.113 125.469C135.722 125.554 134.6 125.707 132.764 125.945C132.645 125.962 132.628 125.962 132.475 125.996ZM128.276 118.958L129.177 119.4C128.65 120.454 128.208 121.185 127.579 122.018C127.953 122.426 128.106 122.596 128.395 123.004C128.854 122.273 129.024 121.967 129.415 121.134L130.231 121.712C129.143 123.446 128.48 124.398 127.596 125.452C128.429 125.35 129.177 125.248 129.721 125.146C129.517 124.687 129.449 124.551 129.16 124.092L129.84 123.837C130.35 124.67 130.588 125.231 130.945 126.268L130.18 126.591C130.095 126.251 130.061 126.149 129.976 125.843C129.262 125.996 128.361 126.166 126.729 126.421C126.525 126.455 126.457 126.455 126.253 126.506L126.049 125.537C126.151 125.554 126.202 125.554 126.253 125.554C126.338 125.554 126.406 125.554 126.542 125.537C127.154 124.789 127.46 124.398 127.902 123.752C127.273 122.902 126.78 122.375 125.896 121.627L126.508 120.947C126.644 121.083 126.797 121.236 126.984 121.406C127.647 120.471 127.97 119.842 128.276 118.958ZM123.635 122.307V120.641C123.635 119.706 123.618 119.247 123.55 118.873H124.723C124.672 119.281 124.655 119.757 124.655 120.624V122.307H125.114C125.607 122.307 125.947 122.29 126.219 122.239V123.31C125.828 123.259 125.573 123.242 125.131 123.242H124.723C125.046 124.058 125.437 124.687 125.981 125.299C125.794 125.588 125.709 125.741 125.505 126.183C125.08 125.605 124.876 125.197 124.587 124.364C124.621 125.537 124.655 126.268 124.655 126.863V132.439C124.655 133.408 124.672 133.969 124.74 134.411H123.55C123.618 133.935 123.652 133.323 123.652 132.439V127.798C123.652 127.135 123.72 125.809 123.822 124.517C123.363 126.863 122.802 128.41 121.901 129.838C121.748 129.464 121.527 129.124 121.289 128.852C122.309 127.407 123.057 125.52 123.499 123.242H122.904C122.428 123.242 122.02 123.259 121.731 123.31V122.239C122.037 122.29 122.326 122.307 122.904 122.307H123.635ZM133.529 126.37L134.124 125.877C134.617 126.166 134.94 126.438 135.416 126.914L134.804 127.492C134.379 127.016 134.056 126.727 133.529 126.37ZM139.003 123.531L138.85 122.375C139.088 122.375 139.462 122.392 139.598 122.392C139.7 122.392 139.7 122.392 140.193 122.375C140.482 121.933 140.652 121.61 140.941 121.049C141.502 119.944 141.672 119.536 141.876 118.754L143.066 119.094C142.913 119.332 142.828 119.519 142.726 119.757C142.556 120.165 141.757 121.627 141.315 122.324C143.015 122.205 143.678 122.137 144.885 121.984C144.426 121.185 144.29 120.981 143.814 120.318L144.613 119.91C145.463 121.032 145.973 121.848 146.806 123.327L145.905 123.854C145.65 123.327 145.599 123.225 145.378 122.834C144.12 123.038 141.672 123.31 140.006 123.412C139.394 123.463 139.224 123.48 139.003 123.531ZM148.438 120.522V121.661C150.138 121.185 151.94 120.318 152.943 119.502L153.691 120.403C153.419 120.539 153.419 120.539 152.739 120.913C151.498 121.61 150.206 122.137 148.438 122.664V124.194C148.438 124.67 148.625 124.721 150.24 124.721C151.787 124.721 152.297 124.687 152.535 124.534C152.807 124.364 152.892 123.922 152.96 122.409C153.3 122.613 153.589 122.732 153.963 122.834C153.844 124.262 153.691 124.908 153.402 125.248C153.113 125.605 152.45 125.69 150.257 125.69C147.826 125.69 147.401 125.52 147.401 124.534V120.522C147.401 119.91 147.367 119.485 147.299 119.043H148.54C148.455 119.434 148.438 119.808 148.438 120.522ZM148.438 128.223V129.124C150.189 128.682 151.821 127.934 153.011 126.999L153.81 127.883C153.062 128.308 151.753 128.971 151.158 129.226C150.172 129.634 149.679 129.804 148.438 130.144V132.167C148.438 132.507 148.557 132.626 148.982 132.694C149.356 132.762 149.764 132.779 150.614 132.779C151.957 132.779 152.501 132.677 152.722 132.405C152.909 132.167 153.028 131.436 153.079 130.212C153.368 130.382 153.742 130.552 154.099 130.654C153.963 132.269 153.776 132.932 153.368 133.323C152.994 133.68 152.416 133.765 150.546 133.765C148.914 133.765 148.404 133.714 147.945 133.51C147.537 133.34 147.401 133.085 147.401 132.524V128.274C147.401 127.424 147.384 127.101 147.316 126.744H148.523C148.455 127.101 148.438 127.39 148.438 128.223ZM139.989 132.541V125.877C139.989 125.248 139.972 124.772 139.921 124.313C140.346 124.364 140.669 124.381 141.298 124.381H144.273C145.004 124.381 145.395 124.364 145.837 124.313C145.803 124.636 145.786 125.146 145.786 125.452V132.677C145.786 133.765 145.514 133.935 143.695 133.935C143.576 133.935 143.389 133.935 143.168 133.918C143.134 133.612 143.032 133.17 142.913 132.864C143.304 132.915 143.729 132.949 144.222 132.949C144.681 132.949 144.783 132.881 144.783 132.575V130.382H141.026V132.507C141.026 133.323 141.043 133.782 141.111 134.241H139.904C139.972 133.782 139.989 133.323 139.989 132.541ZM141.026 125.316V126.914H144.783V125.316H141.026ZM141.026 127.815V129.481H144.783V127.815H141.026ZM169.552 126.115L170.181 126.744C170.079 126.914 170.079 126.914 169.858 127.373C169.246 128.682 168.396 129.889 167.359 130.96C168.566 131.895 169.756 132.49 171.626 133.085C171.354 133.476 171.201 133.731 171.014 134.156C168.991 133.357 167.869 132.745 166.611 131.691C165.455 132.694 164.112 133.476 162.293 134.19C162.089 133.765 161.936 133.561 161.63 133.255C163.381 132.66 164.639 131.98 165.863 130.994C164.69 129.821 164.214 129.09 163.347 127.118C162.888 127.135 162.684 127.152 162.327 127.203V126.098C162.667 126.166 163.041 126.183 163.534 126.183H168.277C168.991 126.183 169.297 126.166 169.552 126.115ZM168.838 127.118H164.35C164.962 128.495 165.472 129.226 166.611 130.314C167.597 129.328 168.175 128.512 168.838 127.118ZM156.632 120.471V119.4C157.04 119.468 157.329 119.485 157.924 119.485H160.219C160.797 119.485 161.103 119.468 161.511 119.4V120.471C161.086 120.42 160.763 120.403 160.219 120.403H157.924C157.397 120.403 157.006 120.42 156.632 120.471ZM156.054 122.885V121.746C156.445 121.814 156.768 121.831 157.414 121.831H160.661C161.358 121.831 161.63 121.814 162.021 121.746V122.885C161.681 122.834 161.392 122.817 160.78 122.817H157.414C156.836 122.817 156.496 122.834 156.054 122.885ZM156.649 125.231V124.194C156.972 124.245 157.278 124.262 157.873 124.262H160.27C160.882 124.262 161.12 124.245 161.477 124.194V125.231C161.069 125.18 160.797 125.163 160.27 125.163H157.873C157.312 125.163 157.04 125.18 156.649 125.231ZM156.649 127.577V126.54C156.989 126.591 157.278 126.608 157.873 126.608H160.27C160.848 126.608 161.171 126.591 161.477 126.54V127.577C161.001 127.526 160.848 127.509 160.27 127.509H157.873C157.295 127.509 157.04 127.526 156.649 127.577ZM157.72 134.275H156.632C156.7 133.782 156.734 133.306 156.734 132.626V130.331C156.734 129.736 156.717 129.345 156.649 128.903C157.091 128.954 157.516 128.971 158.009 128.971H160.236C160.967 128.971 161.171 128.971 161.477 128.92C161.443 129.311 161.426 129.617 161.426 130.263V132.66C161.426 133.187 161.443 133.612 161.511 134.054H160.457V133.357H157.72V134.275ZM157.72 129.855V132.473H160.457V129.855H157.72ZM167.563 120.437H164.911C164.86 122.273 164.656 123.174 164.095 124.194C163.738 124.84 163.398 125.231 162.701 125.775C162.395 125.452 162.14 125.231 161.834 125.061C162.718 124.466 163.16 123.939 163.5 123.038C163.772 122.341 163.891 121.576 163.891 120.454C163.891 120.046 163.874 119.876 163.806 119.434C164.265 119.485 164.69 119.502 165.132 119.502H167.206C167.818 119.502 168.26 119.485 168.651 119.434C168.6 119.91 168.583 120.352 168.583 121.032V123.684C168.583 123.973 168.736 124.041 169.297 124.041C169.994 124.041 170.198 123.99 170.283 123.803C170.436 123.514 170.521 122.902 170.555 121.899C170.963 122.171 171.116 122.239 171.49 122.358C171.388 123.735 171.218 124.364 170.895 124.653C170.64 124.874 170.215 124.959 169.246 124.959C167.869 124.959 167.563 124.789 167.563 124.024V120.437ZM180.058 132.065V124.84H177.049C176.318 124.84 175.876 124.874 175.366 124.942V123.769C175.825 123.837 176.301 123.871 177.049 123.871H184.087C184.835 123.871 185.311 123.837 185.77 123.769V124.942C185.294 124.874 184.835 124.84 184.087 124.84H181.112V127.611H184.393C185.124 127.611 185.583 127.577 186.025 127.509V128.665C185.532 128.58 185.09 128.563 184.393 128.563H181.112V132.337C181.86 132.473 182.676 132.524 183.883 132.524C185.26 132.524 186.433 132.473 187.861 132.354C187.64 132.779 187.555 133.051 187.487 133.544C186.008 133.578 185.889 133.578 185.43 133.578C182.914 133.578 182.574 133.561 181.707 133.442C179.055 133.068 177.389 132.048 176.488 130.246C175.791 131.861 175.179 132.762 173.904 134.105C173.615 133.748 173.496 133.629 173.02 133.306C174.193 132.201 174.737 131.487 175.315 130.28C175.893 129.09 176.352 127.373 176.352 126.404C176.352 126.353 176.352 126.302 176.352 126.234L177.542 126.472C177.491 126.693 177.491 126.693 177.338 127.356C177.253 127.764 176.998 128.75 176.879 129.158C177.321 130.076 177.627 130.484 178.222 131.028C178.715 131.453 179.276 131.776 180.058 132.065ZM179.803 120.845V120.029C179.803 119.638 179.769 119.366 179.701 118.958H181.027C180.942 119.332 180.908 119.638 180.908 120.012V120.845H185.872C186.535 120.845 187.028 120.828 187.572 120.777C187.521 121.134 187.504 121.457 187.504 121.933V123.004C187.504 123.514 187.521 123.854 187.572 124.211H186.467V121.831H174.601V124.211H173.479C173.53 123.837 173.547 123.531 173.547 123.004V121.933C173.547 121.491 173.53 121.1 173.479 120.777C174.023 120.828 174.516 120.845 175.196 120.845H179.803Z" fill="black"/>
<rect width="340" height="47" transform="translate(0 151)" fill="#F9F9F9"/>
<path d="M50.824 167.454L51.504 168.27C51.334 168.491 51.3 168.542 51.096 168.95C49.923 171.228 48.342 172.775 46.132 173.795C45.877 173.37 45.741 173.217 45.299 172.826C46.489 172.367 47.186 171.959 47.985 171.211C48.767 170.48 49.396 169.647 49.889 168.678H40.233C39.298 168.678 38.856 168.695 38.227 168.763V167.454C38.805 167.539 39.281 167.573 40.25 167.573H49.379C50.518 167.573 50.518 167.573 50.824 167.454ZM43.412 170.412H44.789C44.738 170.718 44.738 170.718 44.721 171.602C44.67 174.441 44.194 176.124 43.038 177.586C42.001 178.895 40.743 179.745 38.686 180.527C38.431 179.983 38.312 179.813 37.904 179.388C39.281 178.98 40.131 178.555 41.015 177.824C42.817 176.379 43.48 174.645 43.48 171.33C43.48 170.854 43.463 170.735 43.412 170.412ZM58.5323 165.958L59.8753 166.349C59.6543 166.672 59.6543 166.672 59.2803 167.471C59.1273 167.794 58.9573 168.083 58.7533 168.406C58.9403 168.389 59.0933 168.372 59.3823 168.372L63.8193 168.321C64.2273 168.304 64.5503 168.253 64.8053 168.151L65.7063 169.086C65.5023 169.358 65.5023 169.375 65.1963 170.191C64.6013 171.772 63.7513 173.506 62.9693 174.73C61.2693 177.365 58.9913 179.235 55.4553 180.85C55.1833 180.34 55.0303 180.153 54.6223 179.796C56.0673 179.235 56.9853 178.742 58.1413 177.943C59.4673 177.025 60.2493 176.328 61.0823 175.257C59.8583 174.152 58.6173 173.268 57.2743 172.503L58.0563 171.636C59.5013 172.469 60.4363 173.132 61.8133 174.271C62.8163 172.758 63.5813 171.143 64.1763 169.341L58.2263 169.426C57.0703 171.279 55.8633 172.605 54.1803 173.948C53.7893 173.506 53.6363 173.387 53.1943 173.132C55.0303 171.806 56.4243 170.242 57.5293 168.287C58.0733 167.301 58.3963 166.57 58.5323 165.958ZM66.3863 165.839L67.1853 165.414C67.9163 166.23 68.2563 166.723 68.8853 167.794L68.0693 168.253C67.5933 167.352 67.0833 166.621 66.3863 165.839ZM64.8393 166.638L65.6213 166.213C66.3523 167.046 66.6923 167.539 67.3213 168.61L66.5053 169.052C66.0293 168.151 65.5193 167.42 64.8393 166.638ZM81.6183 168.117H81.8563C81.8393 167.981 81.8223 167.896 81.8223 167.794C81.8223 166.842 82.6043 166.06 83.5733 166.06C84.5423 166.06 85.3243 166.842 85.3243 167.811C85.3243 168.78 84.5423 169.562 83.5733 169.562C83.4543 169.562 83.3523 169.545 83.1993 169.511C82.6043 171.721 81.8053 173.574 80.8363 174.951C79.8333 176.396 78.3203 177.807 76.6543 178.844C75.6853 179.456 74.9203 179.83 73.5263 180.357C73.2713 179.813 73.1353 179.626 72.6933 179.184C74.2233 178.725 75.2263 178.249 76.5353 177.382C79.3233 175.512 80.9383 173.081 81.8903 169.273H73.2373C72.3703 169.273 71.8943 169.29 71.3333 169.375V168.015C71.9793 168.1 72.3193 168.117 73.2543 168.117H81.6183ZM83.5733 166.774C82.9953 166.774 82.5363 167.233 82.5363 167.811C82.5363 168.372 83.0123 168.848 83.5733 168.848C84.1513 168.848 84.6103 168.389 84.6103 167.811C84.6103 167.233 84.1513 166.774 83.5733 166.774ZM92.3486 165.958L93.6916 166.349C93.4706 166.672 93.4706 166.672 93.0966 167.471C92.9436 167.794 92.7736 168.083 92.5696 168.406C92.8076 168.372 92.8076 168.372 97.8226 168.321C98.2476 168.304 98.5536 168.253 98.8086 168.151L99.5736 168.916C99.3866 169.188 99.3696 169.239 99.0806 170.038C97.9076 173.2 96.4116 175.648 94.6436 177.348C93.2156 178.708 91.5326 179.813 89.2716 180.85C88.9996 180.34 88.8466 180.153 88.4386 179.796C89.8836 179.235 90.8016 178.742 91.9576 177.943C93.2836 177.025 94.0656 176.328 94.8986 175.257C93.6746 174.152 92.4336 173.268 91.0906 172.503L91.8726 171.636C93.3176 172.469 94.2526 173.132 95.6296 174.271C96.6326 172.758 97.3976 171.143 97.9926 169.341L92.0426 169.426C90.8866 171.279 89.6796 172.605 87.9966 173.948C87.6056 173.506 87.4526 173.387 87.0106 173.132C88.8466 171.806 90.2406 170.242 91.3456 168.287C91.8896 167.301 92.2126 166.57 92.3486 165.958ZM103.62 174.169V172.775C104.113 172.86 104.572 172.877 105.728 172.877H115.605C116.863 172.877 117.135 172.86 117.662 172.792V174.169C117.118 174.118 116.727 174.101 115.588 174.101H105.728C104.487 174.101 104.13 174.118 103.62 174.169ZM129.069 168.015H126.519C125.754 168.015 125.363 168.032 124.921 168.1V167.046C125.363 167.131 125.737 167.148 126.536 167.148H129.069C129.069 166.485 129.052 166.264 128.967 165.822H130.174C130.089 166.264 130.072 166.468 130.072 167.148H133.217C134.067 167.148 134.424 167.131 134.883 167.046V168.1C134.424 168.032 133.999 168.015 133.234 168.015H130.072V169.171H132.724C133.455 169.171 133.846 169.154 134.288 169.086V170.089C133.829 170.021 133.404 170.004 132.707 170.004H130.072V171.262H133.506C134.271 171.262 134.764 171.228 135.189 171.16V172.248C134.645 172.18 134.118 172.146 133.506 172.146H126.281C125.482 172.146 124.989 172.18 124.547 172.248V171.16C124.972 171.228 125.448 171.262 126.281 171.262H129.069V170.004H127.029C126.349 170.004 125.975 170.021 125.482 170.089V169.086C125.924 169.154 126.332 169.171 127.046 169.171H129.069V168.015ZM126.638 178.351V179.405C126.638 180.289 126.672 180.816 126.74 181.241H125.516C125.584 180.799 125.601 180.323 125.601 179.405V174.611C125.601 173.829 125.601 173.591 125.55 173.132C125.975 173.183 126.485 173.2 127.131 173.2H132.35C133.149 173.2 133.574 173.183 133.914 173.115C133.863 173.523 133.846 174.05 133.846 174.934V179.762C133.846 180.816 133.523 181.088 132.248 181.088C131.789 181.088 131.245 181.054 130.514 181.003C130.463 180.561 130.395 180.306 130.242 179.932C131.024 180.068 131.67 180.136 132.146 180.136C132.707 180.136 132.809 180.068 132.809 179.677V178.351H126.638ZM126.638 177.484H132.809V176.209H126.638V177.484ZM126.638 175.359H132.809V174.067H126.638V175.359ZM120.654 174.016L119.736 173.591C120.246 171.993 120.348 171.398 120.45 169.086L121.385 169.341C121.266 171.517 121.147 172.282 120.654 174.016ZM123.255 181.275H121.946C122.031 180.731 122.065 180.017 122.065 179.32V167.539C122.065 166.893 122.031 166.4 121.946 165.822H123.255C123.17 166.366 123.136 166.876 123.136 167.539V179.337C123.136 180.068 123.17 180.697 123.255 181.275ZM124.989 170.718L124.156 171.109C123.952 170.174 123.748 169.596 123.374 168.797L124.139 168.474C124.462 169.171 124.683 169.766 124.989 170.718ZM146.596 172.86H146.069V179.558C146.069 180.204 146.103 180.646 146.188 181.258H144.947C145.032 180.629 145.066 180.238 145.066 179.558V168.134C145.066 167.539 145.032 167.012 144.981 166.536C145.44 166.604 145.916 166.621 146.579 166.621H150.506C151.203 166.621 151.645 166.604 151.934 166.553C151.9 166.842 151.9 166.842 151.815 167.76C151.696 169.001 151.526 169.817 151.305 170.174C151.05 170.548 150.693 170.667 149.826 170.667C149.316 170.667 148.84 170.633 148.16 170.548C148.109 170.123 148.058 169.919 147.939 169.528C148.687 169.681 149.401 169.766 149.894 169.766C150.54 169.766 150.625 169.545 150.778 167.59H146.069V171.925H149.758C150.472 171.925 150.846 171.908 151.118 171.857L151.73 172.486C151.645 172.69 151.628 172.792 151.526 173.183C151.152 174.798 150.54 176.413 149.809 177.688C150.71 178.742 151.373 179.32 152.665 180.153C152.342 180.476 152.172 180.731 151.968 181.105C150.846 180.289 150.166 179.66 149.248 178.589C148.568 179.575 147.956 180.255 147.004 181.088C146.766 180.748 146.579 180.544 146.239 180.238C147.259 179.439 147.973 178.691 148.602 177.756C147.718 176.515 147.174 175.172 146.596 172.86ZM150.54 172.86H147.548C148.126 175.019 148.381 175.682 149.163 176.838C149.775 175.665 150.166 174.577 150.54 172.86ZM141.496 170.48H143.264C143.944 170.48 144.199 170.463 144.607 170.395V171.5C144.199 171.449 143.91 171.432 143.264 171.432H138.47C137.841 171.432 137.535 171.449 137.11 171.5V170.395C137.518 170.463 137.824 170.48 138.47 170.48H140.493V168.746H138.895C138.334 168.746 138.011 168.763 137.62 168.814V167.743C137.977 167.794 138.266 167.811 138.895 167.811H140.493V167.301C140.493 166.757 140.459 166.264 140.391 165.839H141.598C141.53 166.366 141.496 166.74 141.496 167.301V167.811H142.856C143.468 167.811 143.757 167.794 144.114 167.743V168.814C143.706 168.763 143.417 168.746 142.856 168.746H141.496V170.48ZM142.55 174.288H143.264C143.961 174.288 144.25 174.271 144.607 174.203V175.308C144.233 175.257 143.859 175.24 143.264 175.24H141.496V176.957H143.06C143.655 176.957 143.944 176.94 144.318 176.889V177.977C143.893 177.926 143.621 177.909 143.06 177.909H141.496V179.643C141.496 180.238 141.53 180.68 141.598 181.258H140.374C140.459 180.663 140.493 180.238 140.493 179.643V177.909H138.759C138.181 177.909 137.892 177.926 137.484 177.977V176.889C137.858 176.94 138.147 176.957 138.759 176.957H140.493V175.24H138.47C137.875 175.24 137.535 175.257 137.11 175.308V174.203C137.518 174.271 137.79 174.288 138.47 174.288H141.598C142.125 173.166 142.295 172.656 142.516 171.619L143.451 171.891C143.162 172.877 142.924 173.506 142.55 174.288ZM140.017 173.795L139.133 174.101C138.98 173.302 138.776 172.605 138.487 171.874L139.337 171.602C139.677 172.486 139.796 172.86 140.017 173.795Z" fill="black"/>
<rect width="340" height="47" transform="translate(0 198)" fill="#F9F9F9"/>
<path d="M45.979 215.797L46.03 216.936C45.826 216.97 45.758 216.987 45.52 217.038C44.126 217.327 43.31 217.463 42.511 217.548V220.489C43.99 220.047 45.027 219.877 46.166 219.877C47.373 219.877 48.393 220.115 49.175 220.591C50.297 221.254 50.926 222.342 50.926 223.6C50.926 225.589 49.413 227.119 47.458 227.119C46.115 227.119 45.163 226.422 44.84 225.198C44.687 224.637 44.619 224.127 44.636 223.277C45.163 223.141 45.333 223.073 45.758 222.835C45.724 223.141 45.724 223.294 45.724 223.498C45.724 225.266 46.234 225.997 47.475 225.997C48.801 225.997 49.753 224.994 49.753 223.6C49.753 221.934 48.342 220.897 46.115 220.897C45.027 220.897 43.939 221.101 42.511 221.56V225.81C42.511 226.728 42.103 227.17 41.27 227.17C40.318 227.17 39.213 226.745 38.465 226.082C37.938 225.623 37.683 225.096 37.683 224.484C37.683 223.736 38.108 223.005 39.026 222.223C39.655 221.696 40.352 221.288 41.423 220.829V217.616C41.27 217.633 41.27 217.633 40.743 217.667C40.437 217.684 40.148 217.684 39.655 217.684C39.4 217.684 38.941 217.684 38.754 217.667C38.55 217.667 38.414 217.667 38.363 217.667C38.295 217.667 38.193 217.667 38.057 217.667V216.545C38.55 216.63 39.026 216.664 39.791 216.664C40.25 216.664 40.913 216.647 41.423 216.613V214.93C41.423 214.25 41.406 213.825 41.338 213.315H42.596C42.528 213.791 42.511 214.114 42.511 214.896V216.528C43.973 216.341 45.044 216.12 45.979 215.797ZM41.423 225.181V221.951C39.74 222.767 38.788 223.685 38.788 224.501C38.788 224.858 39.026 225.198 39.519 225.521C39.978 225.81 40.59 226.014 41.032 226.014C41.372 226.014 41.423 225.912 41.423 225.181ZM51.64 217.99L50.756 218.755C49.855 217.497 48.648 216.324 47.322 215.423L48.206 214.76C49.77 215.865 50.62 216.681 51.64 217.99ZM57.624 216.205H56.247C55.754 217.208 55.465 217.684 54.666 218.704C54.411 218.347 54.258 218.211 53.833 217.956C55.023 216.681 55.652 215.491 56.094 213.706C56.196 213.264 56.247 213.026 56.247 212.771L57.403 212.958C57.301 213.23 57.267 213.366 57.114 213.876C56.978 214.386 56.876 214.709 56.672 215.219H59.749C60.582 215.219 61.024 215.185 61.415 215.117V216.29C60.888 216.239 60.327 216.205 59.749 216.205H58.661C58.627 218.041 58.627 218.245 58.542 219.384H59.987C60.684 219.384 61.194 219.35 61.602 219.282V220.472C61.177 220.404 60.65 220.37 59.987 220.37H58.457C58.406 220.761 58.389 220.965 58.321 221.373C59.29 223.192 60.055 224.11 61.551 225.249C61.245 225.572 61.092 225.81 60.871 226.269C59.596 225.079 59.052 224.399 58.015 222.665C57.403 224.739 56.485 226.065 54.615 227.561C54.343 227.153 54.156 226.966 53.765 226.677C56.094 225.028 57.08 223.328 57.42 220.37H55.873C55.04 220.37 54.598 220.387 54.071 220.472V219.282C54.581 219.367 55.006 219.384 55.907 219.384H57.522C57.59 218.449 57.607 218.092 57.624 216.205ZM63.234 226.422V227.629H62.061C62.129 227.153 62.163 226.439 62.163 225.691V216.256C62.163 215.61 62.129 215.049 62.061 214.471C62.537 214.539 62.86 214.556 63.591 214.556H66.991C67.705 214.556 68.045 214.539 68.521 214.471C68.453 214.981 68.436 215.457 68.436 216.256V225.572C68.436 226.371 68.47 227.136 68.538 227.629H67.348V226.422H63.234ZM63.234 215.542V225.436H67.348V215.542H63.234ZM75.406 214.675L76.035 213.638C77.361 214.386 79.945 215.236 81.798 215.525L81.322 216.715C79.146 216.154 79.146 216.154 78.007 215.746C76.919 215.372 76.919 215.372 75.406 214.675ZM73.995 216.511L75.287 216.596C75.134 217.123 75.049 217.531 74.896 218.466C74.488 220.931 74.454 221.05 74.403 221.441C74.386 221.645 74.369 221.679 74.335 221.832L74.369 221.849C74.59 221.611 74.709 221.492 74.896 221.339C76.069 220.438 77.939 219.877 79.809 219.877C82.58 219.877 84.365 221.169 84.365 223.158C84.365 224.297 83.787 225.402 82.835 226.082C81.747 226.847 80.404 227.204 78.602 227.204C77.582 227.204 76.562 227.102 75.627 226.898C75.304 226.813 75.304 226.813 74.267 226.558C74.284 226.405 74.284 226.303 74.284 226.235C74.284 225.844 74.267 225.623 74.165 225.181C75.457 225.708 77.072 226.031 78.5 226.031C81.305 226.031 83.09 224.909 83.09 223.175C83.09 221.781 81.866 220.965 79.792 220.965C78.058 220.965 76.307 221.509 75.032 222.444C74.76 222.648 74.641 222.767 74.352 223.141L73.026 223.107C73.077 222.801 73.094 222.648 73.162 222.104C73.332 220.812 73.638 218.84 73.876 217.412C73.961 216.953 73.978 216.817 73.995 216.511ZM91.352 214.063H92.729C92.627 214.607 92.627 214.607 92.576 217.616C95.33 217.463 96.01 217.429 98.135 217.344C98.135 217.242 98.135 217.174 98.135 217.123C98.135 217.072 98.135 216.987 98.135 216.868C98.152 216.681 98.152 216.494 98.152 216.29C98.152 214.743 98.135 214.233 98.05 213.706H99.359C99.308 214.046 99.291 214.471 99.291 215.015V215.729L99.274 216.834V217.293C100.94 217.259 102.266 217.208 102.827 217.14L102.861 218.347C102.402 218.313 102.3 218.313 101.586 218.313C101.433 218.313 100.991 218.313 100.43 218.33C100.158 218.33 99.784 218.347 99.24 218.347C99.223 219.792 99.104 220.982 98.934 221.662C98.662 222.665 98.101 223.158 97.217 223.158C96.554 223.158 95.874 222.937 94.854 222.376C94.871 222.121 94.888 222.036 94.888 221.866C94.888 221.679 94.871 221.509 94.854 221.169C95.789 221.781 96.588 222.104 97.081 222.104C97.557 222.104 97.761 221.832 97.914 220.999C98.05 220.251 98.084 219.69 98.118 218.381C96.061 218.449 94.837 218.517 92.576 218.67C92.576 218.772 92.576 218.84 92.576 218.908C92.576 218.976 92.576 219.146 92.576 219.384C92.576 219.673 92.576 219.979 92.576 220.2C92.576 222.818 92.627 223.991 92.746 224.484C92.899 225.062 93.222 225.385 93.885 225.589C94.412 225.776 95.449 225.878 96.537 225.878C98.39 225.878 100.175 225.64 101.263 225.249L101.399 226.558C101.161 226.575 101.127 226.592 100.719 226.643C99.138 226.881 97.727 227 96.418 227C93.392 227 92.1 226.422 91.658 224.892C91.488 224.28 91.437 223.294 91.437 220.863C91.437 220.761 91.437 219.333 91.437 218.738C89.754 218.857 88.802 218.959 88.02 219.095L87.918 217.905C88.088 217.922 88.224 217.922 88.292 217.922C88.598 217.922 89.652 217.854 91.437 217.701C91.437 217.174 91.437 217.021 91.437 216.596C91.437 215.015 91.42 214.522 91.352 214.063ZM119.98 219.639V221.05C119.368 220.965 118.79 220.931 117.736 220.931H107.264C106.329 220.931 105.547 220.965 105.003 221.05V219.639C105.547 219.724 106.278 219.758 107.264 219.758H117.736C118.739 219.758 119.47 219.724 119.98 219.639ZM127.001 217.344V218.296H128.446C129.126 218.296 129.585 218.279 129.891 218.228V219.095C129.364 219.044 128.956 219.027 128.446 219.027H124.315C123.72 219.027 123.329 219.044 122.819 219.078C122.853 218.67 122.87 218.245 122.87 217.548V214.93C122.87 214.182 122.853 213.74 122.802 213.298C123.227 213.349 123.635 213.366 124.468 213.366H128.344C129.075 213.366 129.517 213.349 129.891 213.281V214.199C129.466 214.148 129.058 214.131 128.446 214.131H126.984V215.049H128.055C128.837 215.049 129.109 215.032 129.449 214.998C129.415 215.287 129.398 215.491 129.398 215.831V216.562C129.398 216.936 129.415 217.123 129.449 217.395C129.109 217.361 128.633 217.344 127.953 217.344H127.001ZM126.083 217.344H123.822V218.296H126.083V217.344ZM123.822 216.647H128.497V215.746H123.822V216.647ZM123.822 215.049H126.066V214.131H123.822V215.049ZM135.518 215.338H131.557C131.098 216.018 130.86 216.307 130.163 217.021C129.925 216.698 129.755 216.545 129.432 216.324C130.588 215.355 131.217 214.386 131.659 212.907L132.679 213.179C132.407 213.842 132.288 214.08 132.101 214.454H135.518C136.181 214.454 136.538 214.437 136.963 214.369V215.423C136.555 215.355 136.164 215.338 135.518 215.338ZM127.171 225.504H126.168C125.369 225.504 124.706 225.521 124.264 225.572C124.315 225.198 124.332 224.671 124.332 223.838V221.305C124.332 220.659 124.315 220.183 124.281 219.673C124.706 219.707 125.216 219.724 126.049 219.724H133.155C134.022 219.724 134.413 219.707 134.906 219.656C134.872 220.115 134.855 220.506 134.855 221.305V223.804C134.855 224.705 134.872 225.283 134.923 225.572C134.464 225.521 133.852 225.504 133.036 225.504H131.557V226.626C131.557 227.136 131.744 227.187 133.325 227.187C135.263 227.187 135.722 227.119 135.926 226.83C136.096 226.592 136.198 226.065 136.283 225.215C136.64 225.436 136.861 225.538 137.286 225.64C137.082 226.813 136.895 227.357 136.572 227.663C136.198 228.003 135.501 228.105 133.512 228.105C130.979 228.105 130.52 227.918 130.52 226.915V225.504H128.259C127.528 227.323 125.641 228.258 122.649 228.326C122.479 227.901 122.377 227.714 122.088 227.306C122.462 227.323 122.649 227.323 122.836 227.323C125.012 227.323 126.559 226.677 127.171 225.504ZM125.335 220.523V221.39H133.852V220.523H125.335ZM125.335 222.138V223.022H133.852V222.138H125.335ZM125.335 223.77V224.722H133.852V223.77H125.335ZM131.013 218.143V217.072C131.387 217.14 131.812 217.157 132.424 217.157H134.906C135.586 217.157 135.96 217.14 136.351 217.072V218.143C135.909 218.075 135.569 218.058 134.906 218.058H132.458C131.812 218.058 131.404 218.075 131.013 218.143Z" fill="black"/>
<rect width="340" height="47" transform="translate(0 245)" fill="#F9F9F9"/>
<path d="M48.988 260.57L49.855 261.658C49.651 261.709 49.651 261.709 49.328 261.828C48.087 262.27 46.931 262.61 45.588 262.882C45.571 264.514 45.554 265.619 45.537 266.282H49.617C50.586 266.282 50.841 266.265 51.402 266.163V267.455C50.79 267.387 50.484 267.37 49.617 267.37H45.452C45.316 268.968 44.993 270.056 44.347 271.127C43.463 272.606 42.188 273.677 40.114 274.68C39.808 274.17 39.655 274 39.196 273.626C41.049 272.912 42.341 271.96 43.174 270.702C43.803 269.767 44.092 268.832 44.211 267.37H39.434C38.567 267.37 38.261 267.387 37.649 267.455V266.163C38.21 266.265 38.465 266.282 39.434 266.282H44.313C44.347 265.534 44.364 264.582 44.364 263.086C43.293 263.307 41.831 263.46 39.332 263.562C39.23 263.12 39.179 262.967 38.924 262.423C39.4 262.457 39.655 262.457 39.91 262.457C42.086 262.457 44.874 262.032 47.05 261.386C48.002 261.097 48.444 260.91 48.988 260.57ZM63.574 272.997H65.597C66.396 272.997 66.685 272.98 67.127 272.895V274.136C66.719 274.068 66.277 274.051 65.58 274.051H57.25C56.519 274.051 56.111 274.068 55.703 274.136V272.895C56.162 272.98 56.434 272.997 57.233 272.997H62.401C62.792 271.178 63.183 268.679 63.336 267.149H58.797C57.828 267.149 57.743 267.149 57.301 267.217V265.993C57.709 266.061 58.151 266.095 58.814 266.095H63.37C63.778 266.095 63.931 266.078 64.169 265.976L64.73 266.469C64.594 266.758 64.577 266.809 64.458 267.659C64.067 270.362 63.931 271.212 63.574 272.997ZM71.479 268.169V266.775C71.972 266.86 72.431 266.877 73.587 266.877H83.464C84.722 266.877 84.994 266.86 85.521 266.792V268.169C84.977 268.118 84.586 268.101 83.447 268.101H73.587C72.346 268.101 71.989 268.118 71.479 268.169ZM93.494 274.527H92.032C92.1 274.068 92.134 273.66 92.134 272.742V262.185C92.134 261.284 92.1 260.876 92.032 260.451H93.494C93.426 260.893 93.409 261.25 93.409 262.219V265.398C96.027 266.333 97.999 267.268 100.974 268.985L100.243 270.243C98.645 269.121 96.299 267.863 93.902 266.877C93.647 266.775 93.528 266.707 93.375 266.588L93.341 266.605C93.392 266.945 93.409 267.183 93.409 267.608V272.725C93.409 273.677 93.426 274.051 93.494 274.527ZM107.995 260.876H109.406C109.355 261.284 109.338 261.505 109.338 262.287V266.86C109.338 267.676 109.355 267.863 109.406 268.271H107.995C108.046 267.88 108.063 267.523 108.063 266.843V262.304C108.063 261.573 108.046 261.284 107.995 260.876ZM115.509 260.876H116.937C116.869 261.267 116.852 261.539 116.852 262.355V264.361C116.852 267.064 116.733 268.56 116.427 269.546C115.934 271.144 114.863 272.385 113.197 273.32C112.364 273.796 111.548 274.119 110.103 274.544C109.916 274.051 109.814 273.881 109.389 273.371C110.919 273.031 111.735 272.742 112.619 272.215C114.2 271.297 115.016 270.209 115.339 268.628C115.526 267.659 115.577 266.877 115.577 264.293V262.372C115.577 261.488 115.56 261.25 115.509 260.876ZM135.824 261.454L136.504 262.27C136.334 262.491 136.3 262.542 136.096 262.95C134.923 265.228 133.342 266.775 131.132 267.795C130.877 267.37 130.741 267.217 130.299 266.826C131.489 266.367 132.186 265.959 132.985 265.211C133.767 264.48 134.396 263.647 134.889 262.678H125.233C124.298 262.678 123.856 262.695 123.227 262.763V261.454C123.805 261.539 124.281 261.573 125.25 261.573H134.379C135.518 261.573 135.518 261.573 135.824 261.454ZM128.412 264.412H129.789C129.738 264.718 129.738 264.718 129.721 265.602C129.67 268.441 129.194 270.124 128.038 271.586C127.001 272.895 125.743 273.745 123.686 274.527C123.431 273.983 123.312 273.813 122.904 273.388C124.281 272.98 125.131 272.555 126.015 271.824C127.817 270.379 128.48 268.645 128.48 265.33C128.48 264.854 128.463 264.735 128.412 264.412ZM141.56 261.046L142.971 261.131C142.903 261.556 142.903 261.556 142.869 262.593C142.733 267.2 142.597 268.458 141.951 270.175C141.373 271.756 140.557 272.895 139.01 274.374C138.67 273.932 138.5 273.779 137.99 273.456C139.384 272.351 140.302 271.127 140.863 269.546C141.39 268.067 141.628 265.84 141.628 262.253C141.628 261.641 141.611 261.437 141.56 261.046ZM145.793 260.927L147.187 260.944C147.102 261.352 147.085 261.658 147.085 262.44L146.983 272.708C148.394 272.181 149.261 271.637 150.145 270.736C151.08 269.767 151.743 268.645 152.151 267.336C152.508 267.795 152.644 267.948 153.103 268.322C152.27 270.277 151.148 271.688 149.686 272.691C148.938 273.201 148.258 273.541 147.255 273.932C146.949 274.051 146.949 274.051 146.711 274.136C146.507 274.221 146.473 274.238 146.32 274.323L145.64 273.541C145.742 273.252 145.759 273.116 145.759 272.385L145.861 262.44C145.861 261.335 145.861 261.335 145.793 260.927Z" fill="black"/>
<rect width="340" height="47" transform="translate(0 292)" fill="#F9F9F9"/>
<path d="M50.824 308.454L51.504 309.27C51.334 309.491 51.3 309.542 51.096 309.95C49.923 312.228 48.342 313.775 46.132 314.795C45.877 314.37 45.741 314.217 45.299 313.826C46.489 313.367 47.186 312.959 47.985 312.211C48.767 311.48 49.396 310.647 49.889 309.678H40.233C39.298 309.678 38.856 309.695 38.227 309.763V308.454C38.805 308.539 39.281 308.573 40.25 308.573H49.379C50.518 308.573 50.518 308.573 50.824 308.454ZM43.412 311.412H44.789C44.738 311.718 44.738 311.718 44.721 312.602C44.67 315.441 44.194 317.124 43.038 318.586C42.001 319.895 40.743 320.745 38.686 321.527C38.431 320.983 38.312 320.813 37.904 320.388C39.281 319.98 40.131 319.555 41.015 318.824C42.817 317.379 43.48 315.645 43.48 312.33C43.48 311.854 43.463 311.735 43.412 311.412ZM65.631 309.117H65.869C65.852 308.981 65.835 308.896 65.835 308.794C65.835 307.842 66.617 307.06 67.586 307.06C68.555 307.06 69.337 307.842 69.337 308.811C69.337 309.78 68.555 310.562 67.586 310.562C67.467 310.562 67.365 310.545 67.212 310.511C66.617 312.721 65.818 314.574 64.849 315.951C63.846 317.396 62.333 318.807 60.667 319.844C59.698 320.456 58.933 320.83 57.539 321.357C57.284 320.813 57.148 320.626 56.706 320.184C58.236 319.725 59.239 319.249 60.548 318.382C63.336 316.512 64.951 314.081 65.903 310.273H57.25C56.383 310.273 55.907 310.29 55.346 310.375V309.015C55.992 309.1 56.332 309.117 57.267 309.117H65.631ZM67.586 307.774C67.008 307.774 66.549 308.233 66.549 308.811C66.549 309.372 67.025 309.848 67.586 309.848C68.164 309.848 68.623 309.389 68.623 308.811C68.623 308.233 68.164 307.774 67.586 307.774ZM73.995 307.876H75.406C75.355 308.284 75.338 308.505 75.338 309.287V313.86C75.338 314.676 75.355 314.863 75.406 315.271H73.995C74.046 314.88 74.063 314.523 74.063 313.843V309.304C74.063 308.573 74.046 308.284 73.995 307.876ZM81.509 307.876H82.937C82.869 308.267 82.852 308.539 82.852 309.355V311.361C82.852 314.064 82.733 315.56 82.427 316.546C81.934 318.144 80.863 319.385 79.197 320.32C78.364 320.796 77.548 321.119 76.103 321.544C75.916 321.051 75.814 320.881 75.389 320.371C76.919 320.031 77.735 319.742 78.619 319.215C80.2 318.297 81.016 317.209 81.339 315.628C81.526 314.659 81.577 313.877 81.577 311.293V309.372C81.577 308.488 81.56 308.25 81.509 307.876ZM96.928 309.015H94.378C93.613 309.015 93.222 309.032 92.78 309.1V308.046C93.222 308.131 93.596 308.148 94.395 308.148H96.928C96.928 307.485 96.911 307.264 96.826 306.822H98.033C97.948 307.264 97.931 307.468 97.931 308.148H101.076C101.926 308.148 102.283 308.131 102.742 308.046V309.1C102.283 309.032 101.858 309.015 101.093 309.015H97.931V310.171H100.583C101.314 310.171 101.705 310.154 102.147 310.086V311.089C101.688 311.021 101.263 311.004 100.566 311.004H97.931V312.262H101.365C102.13 312.262 102.623 312.228 103.048 312.16V313.248C102.504 313.18 101.977 313.146 101.365 313.146H94.14C93.341 313.146 92.848 313.18 92.406 313.248V312.16C92.831 312.228 93.307 312.262 94.14 312.262H96.928V311.004H94.888C94.208 311.004 93.834 311.021 93.341 311.089V310.086C93.783 310.154 94.191 310.171 94.905 310.171H96.928V309.015ZM94.497 319.351V320.405C94.497 321.289 94.531 321.816 94.599 322.241H93.375C93.443 321.799 93.46 321.323 93.46 320.405V315.611C93.46 314.829 93.46 314.591 93.409 314.132C93.834 314.183 94.344 314.2 94.99 314.2H100.209C101.008 314.2 101.433 314.183 101.773 314.115C101.722 314.523 101.705 315.05 101.705 315.934V320.762C101.705 321.816 101.382 322.088 100.107 322.088C99.648 322.088 99.104 322.054 98.373 322.003C98.322 321.561 98.254 321.306 98.101 320.932C98.883 321.068 99.529 321.136 100.005 321.136C100.566 321.136 100.668 321.068 100.668 320.677V319.351H94.497ZM94.497 318.484H100.668V317.209H94.497V318.484ZM94.497 316.359H100.668V315.067H94.497V316.359ZM88.513 315.016L87.595 314.591C88.105 312.993 88.207 312.398 88.309 310.086L89.244 310.341C89.125 312.517 89.006 313.282 88.513 315.016ZM91.114 322.275H89.805C89.89 321.731 89.924 321.017 89.924 320.32V308.539C89.924 307.893 89.89 307.4 89.805 306.822H91.114C91.029 307.366 90.995 307.876 90.995 308.539V320.337C90.995 321.068 91.029 321.697 91.114 322.275ZM92.848 311.718L92.015 312.109C91.811 311.174 91.607 310.596 91.233 309.797L91.998 309.474C92.321 310.171 92.542 310.766 92.848 311.718ZM114.455 313.86H113.928V320.558C113.928 321.204 113.962 321.646 114.047 322.258H112.806C112.891 321.629 112.925 321.238 112.925 320.558V309.134C112.925 308.539 112.891 308.012 112.84 307.536C113.299 307.604 113.775 307.621 114.438 307.621H118.365C119.062 307.621 119.504 307.604 119.793 307.553C119.759 307.842 119.759 307.842 119.674 308.76C119.555 310.001 119.385 310.817 119.164 311.174C118.909 311.548 118.552 311.667 117.685 311.667C117.175 311.667 116.699 311.633 116.019 311.548C115.968 311.123 115.917 310.919 115.798 310.528C116.546 310.681 117.26 310.766 117.753 310.766C118.399 310.766 118.484 310.545 118.637 308.59H113.928V312.925H117.617C118.331 312.925 118.705 312.908 118.977 312.857L119.589 313.486C119.504 313.69 119.487 313.792 119.385 314.183C119.011 315.798 118.399 317.413 117.668 318.688C118.569 319.742 119.232 320.32 120.524 321.153C120.201 321.476 120.031 321.731 119.827 322.105C118.705 321.289 118.025 320.66 117.107 319.589C116.427 320.575 115.815 321.255 114.863 322.088C114.625 321.748 114.438 321.544 114.098 321.238C115.118 320.439 115.832 319.691 116.461 318.756C115.577 317.515 115.033 316.172 114.455 313.86ZM118.399 313.86H115.407C115.985 316.019 116.24 316.682 117.022 317.838C117.634 316.665 118.025 315.577 118.399 313.86ZM109.355 311.48H111.123C111.803 311.48 112.058 311.463 112.466 311.395V312.5C112.058 312.449 111.769 312.432 111.123 312.432H106.329C105.7 312.432 105.394 312.449 104.969 312.5V311.395C105.377 311.463 105.683 311.48 106.329 311.48H108.352V309.746H106.754C106.193 309.746 105.87 309.763 105.479 309.814V308.743C105.836 308.794 106.125 308.811 106.754 308.811H108.352V308.301C108.352 307.757 108.318 307.264 108.25 306.839H109.457C109.389 307.366 109.355 307.74 109.355 308.301V308.811H110.715C111.327 308.811 111.616 308.794 111.973 308.743V309.814C111.565 309.763 111.276 309.746 110.715 309.746H109.355V311.48ZM110.409 315.288H111.123C111.82 315.288 112.109 315.271 112.466 315.203V316.308C112.092 316.257 111.718 316.24 111.123 316.24H109.355V317.957H110.919C111.514 317.957 111.803 317.94 112.177 317.889V318.977C111.752 318.926 111.48 318.909 110.919 318.909H109.355V320.643C109.355 321.238 109.389 321.68 109.457 322.258H108.233C108.318 321.663 108.352 321.238 108.352 320.643V318.909H106.618C106.04 318.909 105.751 318.926 105.343 318.977V317.889C105.717 317.94 106.006 317.957 106.618 317.957H108.352V316.24H106.329C105.734 316.24 105.394 316.257 104.969 316.308V315.203C105.377 315.271 105.649 315.288 106.329 315.288H109.457C109.984 314.166 110.154 313.656 110.375 312.619L111.31 312.891C111.021 313.877 110.783 314.506 110.409 315.288ZM107.876 314.795L106.992 315.101C106.839 314.302 106.635 313.605 106.346 312.874L107.196 312.602C107.536 313.486 107.655 313.86 107.876 314.795Z" fill="black"/>
<rect width="340" height="26" transform="translate(0 339)" fill="#F9F9F9"/>
<rect x="30" y="351" width="280" height="2" fill="#D9D9D9"/>
<rect width="340" height="47" transform="translate(0 365)" fill="#F9F9F9"/>
<path d="M38.312 381.471H38.176C37.734 381.471 37.36 381.488 36.935 381.556V380.434C37.343 380.485 37.751 380.519 38.261 380.519H43.65C44.228 380.519 44.534 380.502 44.925 380.451V381.505C44.245 381.471 44.177 381.471 43.701 381.471V393.558C43.701 394.306 43.735 394.901 43.803 395.309H42.528C42.596 394.816 42.63 394.221 42.63 393.541V391.552C41.559 391.875 40.233 392.215 37.938 392.708C37.598 392.776 37.343 392.844 37.105 392.929L36.765 391.722C37.122 391.722 37.377 391.688 38.312 391.535V381.471ZM39.383 381.471V383.987H42.63V381.471H39.383ZM39.383 384.871V387.438H42.63V384.871H39.383ZM39.383 388.339V391.331C40.692 391.076 41.355 390.923 42.63 390.566V388.339H39.383ZM45.894 381.675H50.586C51.028 381.675 51.453 381.658 51.861 381.607C51.827 381.777 51.759 382.236 51.708 382.576C51.283 385.483 50.399 388.016 49.005 390.345C49.974 391.756 50.96 392.674 52.694 393.745C52.439 394.034 52.235 394.357 52.031 394.85C50.28 393.626 49.379 392.759 48.359 391.297C47.271 392.793 46.217 393.813 44.636 394.867C44.432 394.442 44.245 394.136 43.956 393.847C45.588 392.878 46.676 391.892 47.764 390.345C46.506 388.135 45.877 386.061 45.469 382.661C44.942 382.678 44.789 382.695 44.466 382.746V381.59C44.891 381.658 45.265 381.675 45.894 381.675ZM50.603 382.661H46.506C46.71 384.344 46.846 385.092 47.152 386.214C47.475 387.387 47.883 388.39 48.393 389.359C49.532 387.387 50.144 385.5 50.603 382.661ZM68.215 385.143L68.708 385.738C68.572 386.01 68.521 386.146 68.385 386.503C67.535 388.577 66.719 390.022 65.648 391.297C66.804 392.521 67.943 393.337 69.592 394.153C69.286 394.544 69.099 394.85 68.946 395.224C67.314 394.272 66.107 393.32 64.934 392.079C63.574 393.439 62.367 394.221 60.276 395.173C60.055 394.816 59.817 394.561 59.477 394.289C61.602 393.473 62.877 392.674 64.254 391.297C62.86 389.546 62.078 387.761 61.602 385.296C61.398 387.846 61.194 389.036 60.701 390.651C60.14 392.487 59.494 393.694 58.236 395.224C57.947 394.867 57.777 394.697 57.386 394.425C58.848 392.827 59.664 391.195 60.174 388.849C60.463 387.574 60.667 385.823 60.752 384.174C60.752 384.106 60.769 383.256 60.803 381.624H60.65C59.868 381.624 59.46 381.641 59.018 381.709V380.553C59.494 380.621 60.055 380.655 60.769 380.655H65.172C65.835 380.655 66.226 380.638 66.617 380.587C66.413 381.335 66.413 381.335 66.209 382.338C66.073 382.916 65.75 384.225 65.478 385.211H66.872C67.569 385.211 67.926 385.194 68.215 385.143ZM65.274 381.624H61.84C62.01 383.902 62.265 385.143 62.843 386.741C63.37 388.152 64.067 389.41 64.968 390.532C65.988 389.274 66.634 388.101 67.331 386.163H65.155C64.815 386.163 64.458 386.163 64.084 386.18C64.611 384.616 64.849 383.698 65.274 381.624ZM56.179 383.307V381.641C56.179 380.927 56.145 380.434 56.06 379.924H57.335C57.267 380.434 57.233 380.893 57.233 381.607V383.307H57.981C58.542 383.307 58.78 383.29 59.137 383.222V384.327C58.712 384.276 58.491 384.259 57.981 384.259H57.233V387.863C58.083 387.54 58.338 387.421 59.103 387.047L59.171 388.033C58.372 388.424 58.083 388.543 57.233 388.9V393.949C57.233 394.884 56.842 395.122 55.278 395.122C54.955 395.122 54.615 395.105 54.326 395.088C54.309 394.697 54.258 394.425 54.088 394.017C54.7 394.102 55.125 394.136 55.584 394.136C56.043 394.136 56.179 394.034 56.179 393.677V389.308C55.567 389.546 55.448 389.58 54.836 389.801C54.581 389.886 54.479 389.92 54.139 390.073L53.833 388.9C54.428 388.815 54.989 388.662 56.179 388.237V384.259H55.193C54.683 384.259 54.343 384.276 53.918 384.327V383.205C54.343 383.273 54.717 383.307 55.193 383.307H56.179ZM79.435 388.067H78.789C78.381 388.067 78.041 388.084 77.616 388.135C77.65 387.812 77.667 387.438 77.667 386.979V384.48C77.667 383.936 77.65 383.46 77.599 383.154C78.024 383.205 78.381 383.222 79.044 383.222H82.053C82.75 382.066 83.09 381.284 83.532 379.924L84.637 380.332C84.059 381.675 83.668 382.406 83.141 383.222H84.144C84.739 383.222 85.079 383.205 85.487 383.154C85.453 383.562 85.436 383.936 85.436 384.378V387.047C85.436 387.489 85.453 387.812 85.487 388.135C85.011 388.084 84.688 388.067 84.28 388.067H83.056V393.541C83.056 393.966 83.175 394.034 84.008 394.034C84.654 394.034 84.96 393.966 85.079 393.762C85.266 393.473 85.351 392.793 85.402 391.433C85.844 391.722 86.082 391.824 86.405 391.909C86.167 394.731 85.929 395.02 83.991 395.02C82.274 395.02 82.019 394.867 82.019 393.779V388.067H80.472C80.438 390.005 80.268 391.178 79.86 392.249C79.35 393.609 78.568 394.527 77.225 395.309C77.004 394.969 76.783 394.748 76.409 394.476C77.871 393.745 78.619 392.895 79.044 391.484C79.316 390.6 79.418 389.665 79.435 388.067ZM78.67 384.191V387.115H84.433V384.191H78.67ZM71.802 381.539V380.468C72.176 380.536 72.465 380.553 73.026 380.553H75.287C75.848 380.553 76.12 380.536 76.511 380.468V381.539C76.103 381.488 75.78 381.471 75.287 381.471H73.026C72.516 381.471 72.193 381.488 71.802 381.539ZM71.02 383.936V382.831C71.411 382.899 71.734 382.916 72.38 382.916H75.661C76.375 382.916 76.647 382.899 77.021 382.831V383.936C76.664 383.885 76.392 383.868 75.78 383.868H72.38C71.785 383.868 71.428 383.885 71.02 383.936ZM71.785 386.282V385.228C72.091 385.279 72.397 385.296 72.941 385.296H75.321C75.865 385.296 76.12 385.279 76.443 385.228V386.282C76.069 386.231 75.814 386.214 75.321 386.214H72.941C72.397 386.214 72.125 386.231 71.785 386.282ZM71.785 388.628V387.574C72.108 387.625 72.38 387.642 72.941 387.642H75.304C75.865 387.642 76.154 387.625 76.443 387.574V388.628C76.069 388.577 75.848 388.56 75.304 388.56H72.924C72.38 388.56 72.159 388.577 71.785 388.628ZM72.805 395.224H71.734C71.785 394.714 71.819 394.102 71.819 393.575V391.246C71.819 390.736 71.802 390.277 71.751 389.852C72.04 389.903 72.278 389.92 72.839 389.92H75.44C76.018 389.92 76.188 389.903 76.477 389.869C76.443 390.226 76.426 390.583 76.426 391.212V393.099C76.426 393.643 76.426 393.864 76.46 394.255C75.933 394.221 75.916 394.221 75.474 394.221H72.805V395.224ZM72.788 390.804V393.32H75.474V390.804H72.788ZM80.574 382.491L79.605 383.018C79.231 382.032 78.874 381.386 78.177 380.417L79.112 379.941C79.809 380.927 80.115 381.471 80.574 382.491ZM101.399 389.665H96.418C96.214 390.889 95.874 391.909 95.347 392.878C94.82 393.83 94.327 394.408 93.29 395.309C93.018 394.952 92.814 394.765 92.406 394.51C93.664 393.524 94.31 392.708 94.837 391.467C95.483 389.92 95.687 388.118 95.687 383.613C95.687 381.981 95.67 381.182 95.602 380.689C96.095 380.74 96.486 380.757 97.251 380.757H100.923C101.688 380.757 102.13 380.74 102.538 380.689C102.487 381.097 102.47 381.59 102.47 382.355V393.524C102.47 394.153 102.351 394.51 102.045 394.748C101.824 394.918 101.433 394.986 100.719 394.986C100.345 394.986 100.09 394.969 99.036 394.901C98.985 394.425 98.917 394.136 98.747 393.728C99.699 393.898 100.277 393.949 100.855 393.949C101.28 393.949 101.399 393.83 101.399 393.371V389.665ZM101.399 385.585H96.741C96.69 387.064 96.639 387.676 96.537 388.713H101.399V385.585ZM101.399 384.633V381.726H96.758V383.936C96.758 384.259 96.758 384.327 96.758 384.633H101.399ZM88.615 390.294V382.729C88.615 381.981 88.598 381.539 88.547 381.097C89.091 381.131 89.516 381.148 90.655 381.148H92.508C93.324 381.148 93.63 381.131 94.038 381.097C94.004 381.505 93.987 381.811 93.987 382.729V389.886C93.987 390.702 94.004 391.042 94.038 391.535H92.95V390.753H89.669V392.079H88.513C88.581 391.586 88.615 390.974 88.615 390.294ZM89.669 382.117V385.296H92.95V382.117H89.669ZM89.669 386.248V389.801H92.95V386.248H89.669ZM111.973 382.593V381.641H108.352C107.638 381.641 107.179 381.658 106.72 381.726V380.706C107.213 380.791 107.621 380.808 108.437 380.808H111.973C111.956 380.247 111.939 380.094 111.871 379.652H113.095C113.01 380.026 112.993 380.23 112.976 380.808H116.393C117.277 380.808 117.838 380.791 118.297 380.74C118.263 381.046 118.246 381.386 118.246 382.219V382.593H118.331C119.198 382.593 119.674 382.559 120.082 382.491V383.511C119.623 383.443 119.181 383.426 118.246 383.426V383.953C118.246 384.684 118.263 385.075 118.297 385.364C117.821 385.313 117.26 385.296 116.444 385.296H112.976V386.282H117.073C117.889 386.282 118.314 386.265 118.773 386.197V387.2C118.297 387.132 117.821 387.115 117.073 387.115H112.976V388.152H118.161C119.096 388.152 119.606 388.118 120.048 388.05V389.121C119.504 389.053 118.909 389.019 118.161 389.019H106.924C106.159 389.019 105.564 389.053 105.02 389.121V388.05C105.445 388.118 106.006 388.152 106.924 388.152H111.973V387.115H108.063C107.281 387.115 106.822 387.132 106.346 387.2V386.197C106.805 386.265 107.247 386.282 108.063 386.282H111.973V385.296H108.369C107.587 385.296 107.128 385.313 106.686 385.381V384.395C107.162 384.463 107.553 384.48 108.352 384.48H111.973V383.426H106.924C106.023 383.426 105.547 383.443 105.037 383.511V382.491C105.479 382.559 106.006 382.593 106.924 382.593H111.973ZM112.976 382.593H117.243V381.641H112.976V382.593ZM112.976 383.426V384.48H117.243V383.426H112.976ZM107.247 393.558V391.484C107.247 390.583 107.23 390.277 107.179 389.869C107.655 389.92 107.706 389.92 109.151 389.92H115.985C117.413 389.92 117.532 389.92 117.974 389.869C117.923 390.226 117.906 390.566 117.906 391.501V393.558C117.906 394.425 117.923 394.816 118.008 395.224H116.852V394.578H108.284V395.224H107.145C107.213 394.782 107.247 394.34 107.247 393.558ZM108.284 390.753V391.807H116.852V390.753H108.284ZM108.284 392.623V393.745H116.852V392.623H108.284Z" fill="black"/>
<path d="M149.5 380.75C149.5 380.06 148.94 379.5 148.25 379.5H142.75C142.06 379.5 141.5 380.06 141.5 380.75C141.5 381.44 142.06 382 142.75 382H144.981L139.613 387.371C139.125 387.859 139.125 388.651 139.613 389.139L139.713 389.23C140.21 389.629 140.928 389.59 141.379 389.139L147 383.517V386.25C147 386.94 147.56 387.5 148.25 387.5C148.94 387.5 149.5 386.94 149.5 386.25V380.75Z" fill="#4C6EE8"/>
<path d="M147.5 394.833V389.5H145V393.5C145 393.776 144.776 394 144.5 394H135.5C135.224 394 135 393.776 135 393.5V384.5L135.008 384.41C135.051 384.172 135.259 384 135.5 384H139.5V381.5H134.167C133.246 381.5 132.5 382.246 132.5 383.167V394.833C132.5 395.754 133.246 396.5 134.167 396.5H145.833C146.754 396.5 147.5 395.754 147.5 394.833Z" fill="#4C6EE8"/>
</svg>
