<svg width="80" height="44" viewBox="0 0 80 44" fill="none" xmlns="http://www.w3.org/2000/svg">
<path d="M40.58 7.61C38.58 7.61 36.56 7.5 34.57 7.29L36.97 0.259998C38.18 0.329998 39.39 0.369998 40.58 0.369998C41.36 0.369998 42.14 0.349998 42.91 0.319998L45.33 7.41C43.76 7.54 42.16 7.61 40.57 7.61H40.58Z" fill="#0872ED"/>
<path d="M37.15 0.52C38.3 0.59 39.45 0.62 40.58 0.62C41.27 0.62 42 0.61 42.74 0.58L45 7.19C43.54 7.3 42.06 7.36 40.58 7.36C38.69 7.36 36.79 7.26 34.91 7.08L37.15 0.52ZM36.8 0L34.23 7.51C36.3 7.74 38.42 7.86 40.58 7.86C42.31 7.86 44.01 7.78 45.68 7.63L43.09 0.07C42.26 0.11 41.42 0.13 40.58 0.13C39.31 0.13 38.05 0.09 36.8 0.01V0Z" fill="#0872ED"/>
<path d="M40.58 43.75C34.45 43.75 28.56 42.79 23.08 40.91L25.29 34.45C30.15 35.81 35.29 36.5 40.58 36.5C45.43 36.5 50.17 35.92 54.69 34.76L56.92 41.28C51.77 42.91 46.27 43.74 40.59 43.74L40.58 43.75Z" fill="white"/>
<path d="M25.45 34.76C30.26 36.09 35.35 36.76 40.58 36.76C45.37 36.76 50.06 36.19 54.52 35.07L56.59 41.13C51.53 42.7 46.15 43.5 40.57 43.5C34.55 43.5 28.77 42.58 23.39 40.76L25.44 34.76M25.13 34.15L22.77 41.07C28.14 42.95 34.19 44 40.58 44C46.52 44 52.16 43.09 57.23 41.46L54.84 34.48C50.33 35.65 45.52 36.27 40.57 36.27C35.19 36.27 29.96 35.54 25.12 34.16L25.13 34.15Z" fill="#0872ED"/>
<path d="M40.5801 16.65C37.5601 16.65 34.5501 16.41 31.6201 15.94L33.9801 9.04C36.1601 9.29 38.3801 9.41 40.5801 9.41C42.3601 9.41 44.1601 9.33 45.9401 9.17L48.3201 16.13C45.7901 16.48 43.1901 16.66 40.5901 16.66L40.5801 16.65Z" fill="#0872ED"/>
<path d="M34.15 9.31C36.27 9.54 38.44 9.66 40.58 9.66C42.3 9.66 44.04 9.58 45.76 9.43L47.98 15.91C45.55 16.23 43.07 16.39 40.58 16.39C37.68 16.39 34.78 16.17 31.95 15.73L34.15 9.3M33.8 8.76L31.28 16.13C34.26 16.63 37.38 16.89 40.57 16.89C43.33 16.89 46.03 16.69 48.64 16.32L46.1 8.89C44.28 9.06 42.44 9.15 40.57 9.15C38.28 9.15 36.01 9.02 33.79 8.76H33.8Z" fill="#0872ED"/>
<path d="M40.58 34.72C35.5 34.72 30.56 34.06 25.87 32.75L28.13 26.14C32.14 27.03 36.33 27.48 40.58 27.48C44.4 27.48 48.18 27.11 51.82 26.39L54.1 33.06C49.77 34.16 45.22 34.71 40.58 34.71V34.72Z" fill="white"/>
<path d="M28.3 26.43C32.26 27.29 36.39 27.73 40.58 27.73C44.34 27.73 48.06 27.38 51.65 26.68L53.77 32.89C49.54 33.94 45.1 34.47 40.57 34.47C35.61 34.47 30.77 33.83 26.19 32.58L28.29 26.43M27.97 25.84L25.55 32.91C30.19 34.23 35.27 34.96 40.58 34.96C45.44 34.96 50.11 34.35 54.43 33.23L51.99 26.09C48.33 26.83 44.5 27.22 40.58 27.22C36.23 27.22 31.99 26.75 27.97 25.84Z" fill="#0872ED"/>
<path d="M40.58 25.68C36.54 25.68 32.55 25.25 28.72 24.42L31.03 17.66C34.15 18.18 37.36 18.44 40.58 18.44C43.37 18.44 46.17 18.24 48.9 17.85L51.23 24.67C47.77 25.34 44.19 25.68 40.58 25.68Z" fill="#0872ED"/>
<path d="M31.2 17.94C34.27 18.44 37.42 18.69 40.58 18.69C43.32 18.69 46.06 18.5 48.73 18.13L48.96 18.81L50.9 24.48C47.55 25.11 44.08 25.43 40.58 25.43C36.65 25.43 32.78 25.03 29.05 24.23L30.9 18.81L31.2 17.94ZM30.86 17.38L30.43 18.65L28.4 24.6C32.24 25.46 36.34 25.93 40.59 25.93C44.4 25.93 48.08 25.56 51.57 24.86L49.45 18.65L49.08 17.57C46.32 17.98 43.47 18.19 40.59 18.19C37.27 18.19 34.02 17.91 30.87 17.38H30.86Z" fill="#0872ED"/>
</svg>
